<mxfile host="embed.diagrams.net" modified="2023-06-25T19:05:11.352Z" agent="Mozilla/5.0 (iPhone; CPU iPhone OS 15_6 like Mac OS X) AppleWebKit/605.1.15 (KHTML, like Gecko) Version/15.6 Mobile/15E148 Safari/604.1" etag="S3lPZy7v6SQeZoY5MWQG" version="21.5.0" type="embed" pages="4">
  <diagram id="wfO2g4C_RiowcREzJtml" name="Menu Invite">
    <mxGraphModel dx="7823" dy="6370" grid="1" gridSize="10" guides="1" tooltips="1" connect="1" arrows="1" fold="1" page="1" pageScale="1" pageWidth="827" pageHeight="1169" math="0" shadow="0">
      <root>
        <mxCell id="0" />
        <mxCell id="1" parent="0" />
        <mxCell id="oJZnWnREE_WISB0KuqPZ-1" value="" style="shape=image;verticalLabelPosition=bottom;verticalAlign=top;imageAspect=0;aspect=fixed;image=data:image/png,iVBORw0KGgoAAAANSUhEUgAABQIAAAN7CAYAAAAeJOfyAAAAAXNSR0IArs4c6QAAAARnQU1BAACxjwv8YQUAAAAJcEhZcwAADsMAAA7DAcdvqGQAAC4HSURBVHhe7d1rjFznYR7g/VO0P/I3hQo0Ker2R6AfsRcEBFSBHbcwHAcI0SLRUnFT10AC0rWlxGnMm1S2TuJGsa3EoSiKFOUkasVELi05lSmGVCTHlKKLY4liSVmM4jpSDbuubpRoUtTNivJ1zsyc2TOzZ2ZnySW14vu8wAPPnMt3vnMZEvN6l5opIiIiIiIiIiIicsFHESgiIiIiIiIiIhIQRaCIiIiIiIiIiEhAFIEiIiIiIiIiIiIBUQSKiIiIiIiIiIgERBEoIiIiIiIiIiISkIlF4EMPPVRu+7OvlXsP/005eOh/D7n7L4+V+488VQ4+Ory82vaLBx4st37hC/1RRERERERERERE5K3OxCLw1v0PlFOnXi+vvfJmx992vf7qm+Xk918pmzdtLn9x34Pl794sQ+srL5/+Qfnq4b/pjyIiIiIiIiIiIiJvdSYWgXd97Vh55fQb5dTJ1wdefvlvyzf/+v+USy65pPz0B3667P3y/vLqK3/XLQwH23T2OfDg4/1RRERERERERERE5K3OxCJw773/q7x06vXy/ROv9r3SLf1uv+2O8qPveEdZ9RM/Ud77/veXAwf+vLz88pvlRGd9tV21T7WviIiIiIiIiIjI+cihQ4emstIyMzMzcV7Vumqb5cjEUW6/5+HurwEff+F0eaHjxRdfLidefKX8wod/sXzgn/+zsu997yvX/Kt/WVb/639Tnnrqe90isNqu2qfaty371810Jz/q0q3f6m/RzP6ybubS0rpq4joREREREREREUnKNCXfSiwCqzn9vb//D1rnNmndmWSRfyPwwfLC8ZfK8eOny4kTr5WTJ39Q7tx3T/knP/IjZe+P/3gpq1eX8jM/Uz70Yz9Wrr1uRznVWf/8851tX3yl/HFn38mZpshTBIqIiIiIiIiIyOKZpixbrkJtudNW+LUtO9tMLAJvvuNgt9R79NA3yrWf/d3ykbUfKR/56MfKz//sz5aPXnRR+co731kevPjicvMv/VLZd/dXyhNPfLscOPDV8tU/v7/svvP+/ijjoggUEREREREREZHlyTSF2XKWasudZvHXfL2cmVgEfv72r5Tdt9xaPvGZm8vVf/T1suW63WX37t3lps9/vvzjH/qh8pMd7+148J57ysmXTpVPf/p3ytatN5Rt23aU//bl+/qjjMtwkTf0K8Pr9vcW1tvs31ouXfArxCNF4Lfmt5mZWddZ28vEcQclolJRREREREREROTtnGlKs+Uu1pY7dQF4LkrAKhOLwGt2fqF84Kd+qnzwiv9Uvnzf4bJ95+fLni/cWrZdf3151+xs+Yc//MPl33/4w+W111/vbv+rv/ofy/ve9/6yedPV5bpb9naXjc+48q25vHo9U2Yu3Vq6b7tlX3Nd2+vq7bqWf3NwwvYL3ouIiIiIiIiI5GbwQ1WLWElRBC6eiXds/W/vKO9996XlX7zzHeWf/ug/Klf84s+V//ml28uXvvSl8pnPfKZce+215cknn+xvXcott/xxueiii8qaucvLp2/6Yn/puCws7+YfpHGFXbXZTOn9YF9j3dBPA/bVP/031biKQBERERERERGRt3Pe7kVgXQJW/9t8vZyZWAR+aset5UP/7sNlbm5N+dQ1v1t+4zevKbfddlu55557yv3331+++c1vljfeeKO/dSl/+qd3lc997obyR7u/WK7ZtYQisFvk1b/O+62y9dJxhV21blwROP/rwINMPa4iUERERERERETk7ZxpSrPlLtaWK23FX9uys83EIvCT23aXhx/+Rvna1x8rT/z1d8q263eWXbtuLLfffnu3DDx69Eh55plnyuv9Xw3eu3dfefiRY+XJJ58uW7b+9+6y8WmUb9VP7Y399d/Gvws4VOw1y7uR7eqMHbdZKHbS/alBRaCIiIiIiIiIyNs10xRmy1mqLVcmFX6T1p1JJhaBGz/7+XLvfV8vf/CHt5Zrfvv3yhVX/krZtGlj+fjHP97932uuuabcfPPN5YEHHijPP/98+erBe8uDDx0tx459u2y69vf7o4xLs8jrFXPdX9+9dF1ZN/KTe+vWXTr49d5BeTe0fyfdoq/+FeCO7objxu2k+SvD6zrrFIEiIiIiIiIiIm/bVGXZNFZaqm5q0ryqddU2y5GJo3zsk79XbrzxD8sn1l9d5tb8Qnn3u99TLrvs58qqVavKxRdfXN71rtlyySWXlCuvvLIcPPjV8oX/cVs5eN8j5bHHnizrP3NTfxQRERERERERERF5qzOxCPzgxz9ZDt53qDz0taPlvr84VG666ZayYf3V5dd+bVP5rd/6nbJ1687ybz/4ofKe9/xkWbd2Xfn9P9hdHnjwSHnwLx8rP//L/7k/ioiIiIiIiIiIiLzVmVgE3rJ7d7niN7eXK379+o5t5Zc/dUP5lf+6o/u/tY9+8rrywY//epm7Ykv5D/9la7nyN64vl3/s6nLt567rjyIiIiIiIiIiIiJvdZbnF4xFRERERERERERkRUcRKCIiIiIiIiIiEhBFoIiIiIiIiIiISEAUgSIiIiIiIiIiIgFRBIqIiIiIiIiIiAREESgiIiIiIiIiIhIQRaCIiIiIiIiIiEhAFIEiIiIiIiIiIiIBUQSKiIiIiIiIiIgEZObNN98sAAAAAMCFbeaNN94oAAAAAMCFbeYHP/hBAQAAAAAubDOvvfZaAQAAAAAubDOvvvpqAQAAAAAubDMvv/xyaTp9+omy6/LZsmrVqgVmL99Vnjh9emj7ptN3X9Xd7vJdT4xdd9Xd4/dfSU4/satcPjs7dM5P7Lq8zM5eXnY9MX8Obdstdg3/6tiN3X2a12nascctb9t/WvW9aTpf9+lcPBf19Z+dvarcXd+T/jVrHuv06bvLVS3Xdxr1eG3P+krUdk16y+evwV/92eap7kXznk37mR/3utruibt3lat23b1g/7M1epylOl/zrNTHqoz+uVAvP9PzaFMfbyU+v83Paq36s+2q8zDXu69a+BmpnO/7AwAAcK7MvPTSS2WcU3f1ioHNd51qXT+q3n7NjcfGrpt2rLfaqWM3ljX9L6P1nI/duKbzJXFNufHY/DlUy6ptRpfX2s67Hrt5nZYy9rRzm9bb7d5MY/R61NeyUl/3tvswrbPZ961SX4OhZ3HCZ3Ya0+4/7hk7dequsrlzHWc33zW0fDks53N9LudZqedamV1zYzl2qjfnuzbPF2LL+fk82/t+LrV9tu7afOZ/vi1Fdb1nZzeXu/rXv3a+7w8AAMC5MnOq84VmnJMH+l+kD5wcWv74zs2DIqr6crZ55+ND26/ZPL9+zci6eqyTj+8sm9f0x1izuex8fP4Yi47ff3+g/6XtwMmT3fGqfWY3H2isWzM07lLU4/Xmt7M83jnG4zt7X0brMU+efLzs7JzDbOd8eyVB79hD47Rcw3rs+jwqSxl7mrktxbj7XGm7F4O59Y998uSBoTmOu7eD7das6d2rzr3bf8umoWMvOF7LnKbRPKfBfDvjrWnOe8pnsnXe9wzfw9Hnbdx5DJ7hls9I636NdUPzm7Ru5PPU3KY7/8az1HxuRq/HYufQvbYTzqdtu+brTfu/0b0v1evK4L5McS7TGDpm/9yreVZj19dv0rN8vuZZqY+1pvOMDf5M68+lWlatG1z/MccdjNE/x97rneVA/z42n5nmtqP3beIxWj4LBzrrlutzWxncq+Z8Gvey3mbctR/3GRo/9/7/4dIZZ3Pj75R6vO6+y3F/6vMaeQaHxu+/b/7dVr0HAABYLjPf//73yzgn9vdKmk37T8wve6z6MrOm7Hyst2z/puoLy6ay/8SJwfbVF+XHOu8f63/BqvZvjtUbo/qi91g5ceKx4TGmGL/ab3Td/PvOvjv789i0v7v8TAzm2P+SV827Op/u+P25Nc9jdC6DccZew95+9bKljD3N3JaibY7d5d3jtN+L5ut6Pt17e2J/2dR5XV37+hmo5zVY1zyXtueif9/GXdNpNK9f/bqa08JzGJnbtPNujF9t27x+k86jPt/Wz0h3v/brvWB+bdetOteRz1M1Tq1a1ytE6zH77/tzmfZeDG036XxatlvwunFe3TlOeS7TGDpOf9zePIevw9C59bc7n/Os1Mdas2nT0PG7z2D/z7PmebQdtx5j9F7Uz8w02y56jEmfhZZnpXmO02oev17WOof+eVVzH3xWu/su8hlqm3v3XBeury3L/emva3sGB+P3z/lsryEAAMA4My+++GIZ54V9G7tfTjbue2F4+QtHy74dO8rGubnu+tnZubLj6AuD7ed2HO1td3RHmet88aneN8c6umNusE/bcaYdf9/G6svSxrLvhXq/fWVj53i9feaXn4n5ue8rO+Y6x5nb0ZnT8Lyb5zH2WrUsr8euljdNO/Y0c1uKevzBPDrjHR1c08n3Yv5+9q73gnvbfAb692d2474Fx67Gqbet9p/rbHP0DM6lNjhWdS7NY3Re9+Z3dHDtqnNd8rxH7mE139F1bedRn2/bZ6T7forrXY9VWzD3Rbat1y04dvM6TXEO9fWsXredT9t2C16PXNulnMtiho4zcq7NPzua2/WOv3D5uZxnpd5/8Jmurnk9lwXzaz/u/BgL72f1vrnvgm0b12fiMSZ8Fqp9zvZzW6nHq47Z1B17kc9q9/24z1DL3EfHGv07pTZ/vc7i/kzxDLatq+cAAACwHGZeqL6EjHF88CXm+PyyIzf0vvTNbSw37DvS/8IyV244cnzB9sePz3/xaq47ckPvC9qouRuOTDV+tV01/uDL0vH5+VXLutt0jlkvOxP1PLpzqo/b+WI5mMvxI+WGbpF0QznSOX7zXIfGmXAN6/OoVNdk2rEXm1s95rTa5thdPuleNObUXd6fW/M8umM0n4GWazR67H0jz8bcxt41qLdfivr52Nicd33tNm7snduZzrs/Tj3PBc/hmPMYPd+h40y43vVnZvQeVSZ9nka3bT47C855ynvR3G7i+YzZbuj1yLVdyrksZug4jfOu1tXPRnXPmnNoPsvna56V+ljV/t05dJ6Bjf3CqTmPScdtjtEcs9qvet+836Prmuc38Rgj16G2nJ/b0XtVOdI4t+Z5dLdvzGnSZ6ht7qNj9d4Pf5Yry3J/Jj2DjfFH1zXnAQAAcLZmnn/++TLOc3du6H452XDnc4Nlh7f3vjhtP9xbdueG6gvLhnLnc88Ntp/bfri3/+HtvS8+nffNsUbHaFrK+M111fv6eNU248af1tDcnztctne+9DXHbR6rqTmf7jgt17A5dr2sed6Ljb3Y3Ooxp9U2x8qkezH/fq7MdY5f7zu6z/Bc7ywbOq9nN9zZXddd33Z9Oud0+M7tZUP/vEbnNa1qLtX+3Wszt70crq5d43o1x17yvPvru+OOPJeDbVrOY/QZbh5n0vUed48qo/tNUp//7NyG7rzq69JdN+W9aG436XzatlvweuTaLuVcFjN0nMa8qnXTPMvna56V+ljN6zb6vprHpOM2x2i+r8+nue+CbSc8h01tn4X5dcvzuR29V91ljeOOzm/qz1DL3CdtX29TaV6v+vXo+0Xvz4RncPR+jJsHAADA2Zp5rvsFqd2ze/tfcPY+O1j2aOeLTr3s2Uf39r5YVV98Hu28729flQuPPvtsd9vRdb396i9Ejw7GrLebOH5jv2efrddtKHs7x3r22Ud7BUf1vr9dPY967ksxOsfBubXMs96nbVnbNRwduzLuGjTX18sWm1u9z7Ta5lgZPubwvWjuV9+D7rL62m/Yu/AZqO9ZZ119jOax69fzz0X7vKZVj9ccs7K38yW7WjZ0Lkud98g9qMYcPIsTzmNwzVo+I5Oud3MO1X7N44/OpTlmPd+m+jjNOVamvRdt2y36mR/3euTaLvVcJhk6zoT71dy2bdm5nmelPlY1Xj1263WccNzmGM0xq/3Gbdt63yYdY8JneH774eMu1ejxK482jjG4Pv3PQnN+1ev62JM+Q23HGqxvPAOD7dqOP3ItF70/I+uG/syYch4AAABna+aZZ54p4zx9x/ruF5z1dzw9v+zpR8q2y+oi5bKyfv1lg23q7S9bv75c1vki03297ZHWsar39TbdcerlE8av1t/Rfz972frOuurL0vpyx9NPl0e2DW9Xv6+Pv1RPP7KtO7/B/PvzquZ03cP1696xR/eZXX/H/LK2azgydqWa77RjT5rbtkfm95lW2xy7yxe5F08/fUdZP3K+3eWd+a2v9+vcp3pObduPHvuR0efiDO9fZXC8ketSH3P2sm3lkZFrPPW8R+/ByPtx51Efu/qMVMcaWrfY9W7MrzfG8HUcOt7IvWyq5zruuix2L5rbNc+n3nZwTVq2G33dPU7/s1o/89X6ac9lkqFjjtyfOxp/dnS3nebZPEfzrNTHquY3/3meP05zHuOO2xyj+b45//qeD7ZtuW8TjzHmM7+sn9v+varGaqqe9/rz2vwsDH9Wx3+Gxs69vq8jf6c0t2le2zO+P4s8g+P+bqvWAQAALJeZp6svMsB58f/u+ESjUGjfBgAAAOBcmPne975XgPPj//5Jvwi87uut6wEAAADOlZnvfve7BQAAAAC4sM185zvfKQAAAADAhW3m29/+dgEAAAAALmwzTz31VAEAAAAALmwzL774YgEAAAAALmwzhw4dKgAAAADAhW3m6s/uKgAAAADAhW3m3nvvLQAAAADAhU0RCAAAAAABFIEAAAAAEEARCAAAAAABFIEAAAAAEEARCAAAAAABFIEAAAAAEEARCAAAAAABFIEAAAAAEEARCAAAAAABFIEAAAAAEEARCAAAAAABFIEAAAAAEEARCAAAAAABFIEAAAAAEEARCAAAAAABFIEAAAAAEEARCAAAAAABFIEAAAAAEEARCAAAAAABFIEAAAAAEEARCAAAAAABFIEAAAAAEEARCAAAAAABFIEAAAAAEEARCAAAAAABFIEAAAAAEEARCAAAAAABFIEAAAAAEEARCAAAAAABFIEAAAAAEEARCAAAAAABFIEAAAAAEEARCAAAAAABFIEAAAAAEEARCAAAAAABFIEAAAAAEEARCAAAAAABFIEAAAAAEEARCAAAAAABFIEAAAAAEEARCAAAAAABFIEAAAAAEEARCAAAAAABFIEAAAAAEEARCAAAAAABFIEAAAAAEEARCAAAAAABFIEAAAAAEEARCAAAAAABFIEAAAAAEEARCAAAAAABFIEAAAAAEEARCAAAAAABFIEAAAAAEEARCAAAAAABFIEAAAAAEEARCAAAAAABFIEAAAAAEEARCAAAAAABFIEAAAAAEEARCAAAAAABFIEAAAAAEEARCAAAAAABFIEAAAAAEEARCAAAAAABFIEAAAAAEEARCAAAAAABFIEAAAAAEEARCAAAAAABFIEAAAAAEEARCAAAAAABFIEAAAAAEEARCAAAAAABFIEAAAAAEEARCAAAAAABFIEAAAAAEEARCAAAAAABFIEAAAAAEEARCAAAAAABFIEAAAAAEEARCAAAAAABFIEAAAAAEEARCAAAAAABFIEAAAAAEEARCAAAAAABFIEAAAAAEEARCAAAAAABFIEAAAAAEEARCAAAAAABFIEAAAAAEEARCAAAAAABFIEAAAAAEEARCAAAAAABFIEAAAAAEEARCAAAAAABFIEAAAAAEEARCAAAAAABFIEAAAAAEEARCAAAAAABFIEAAAAAEEARCAAAAAABFIEAAAAAEEARCAAAAAABFIEAAAAAEEARCAAAAAABFIEAAAAAEEARCAAAAAABFIEAAAAAEEARCAAAAAABFIEAAAAAEEARCAAAAAABFIEAAAAAEEARCAAAAAABFIEAAAAAEEARCAAAAAABFIEAAAAAEEARCAAAAAABFIEAAAAAEEARCAAAAAABFIEAAAAAEEARCAAAAAABFIEAAAAAEEARCAAAAAABFIEAAAAAEEARCAAAAAABFIEAAAAAEEARCAAAAAABFIEAAAAAEEARCAAAAAABFIEAAAAAEEARCAAAAAABFIEAAAAAEEARCAAAAAABFIEAAAAAEEARCAAAAAABFIEAAAAAEEARCAAAAAABFIEAAAAAEEARCAAAAAABFIEAAAAAEEARCAAAAAABFIEAAAAAEEARCAAAAAABFIEAAAAAEEARCAAAAAABFIEAAAAAEEARCAAAAAABFIEAAAAAEEARCAAAAAABFIEAAAAAEEARCAAAAAABFIEAAAAAEEARCAAAAAABFIEAAAAAEEARCAAAAAABFIEAAAAAEEARCAAAAAABFIEAAAAAEEARCAAAAAABFIEAAAAAEEARCAAAAAABFIEAAAAAEEARCAAAAAABFIEAAAAAEEARCAAAAAABFIEAAAAAEEARCAAAAAABFIEAAAAAEEARCAAAAAABFIEAAAAAEEARCAAAAAABFIEAAAAAEEARCAAAAAABFIEAAAAAEEARCAAAAAABFIEAAAAAEEARCAAAAAABFIEAAAAAEEARCAAAAAABFIEAAAAAEEARCAAAAAABFIEAAAAAEEARCAAAAAABFIEAAAAAEEARCAAAAAABFIEAAAAAEEARCAAAAAABFIEAAAAAEEARCAAAAAABFIEAAAAAEEARCAAAAAABFIEAAAAAEEARCAAAAAABFIEAAAAAEEARCAAAAAABFIEAAAAAEEARCAAAAAABFIEAAAAAEEARCAAAAAABFIEAAAAAEEARCAAAAAABFIEAAAAAEEARCAAAAAABFIEAAAAAEEARCAAAAAABFIEAAAAAEEARCAAAAAABFIEAAAAAEEARCAAAAAABFIEAAAAAEEARCAAAAAABFIEAAAAAEEARCAAAAAABFIEAAAAAEEARCAAAAAABFIEAAAAAEEARCAAAAAABFIEAAAAAEEARCAAAAAABFIEAAAAAEEARCAAAAAABFIEAAAAAEEARCAAAAAABFIEAAAAAEEARCAAAAAABFIEAAAAAEEARCAAAAAABFIEAAAAAEEARCAAAAAABFIEAAAAAEEARCAAAAAABFIEAAAAAEEARCAAAAAABFIEAAAAAEEARCAAAAAABFIEAAAAAEEARCAAAAAABFIEAAAAAEEARCAAAAAABFIEAAAAAEEARCAAAAAABFIEAAAAAEEARCAAAAAABFIEAAAAAEEARCAAAAAABFIEAAAAAEEARCAAAAAABFIEAAAAAEEARCAAAAAABFIEAAAAAEEARCAAAAAABFIEAAAAAEEARCAAAAAABFIEAAAAAEEARCAAAAAABFIEAAAAAEEARCAAAAAABFIEAAAAAEEARCAAAAAABFIEAAAAAEEARCAAAAAABFIEAAAAAEEARCAAAAAABFIEAAAAAEEARCAAAAAABFIEAAAAAEEARCAAAAAABFIEAAAAAEEARCAAAAAABFIEAAAAAEEARCAAAAAABFIEAAAAAEEARCAAAAAABFIEAAAAAEEARCAAAAAABFIEAAAAAEEARCAAAAAABFIEAAAAAEEARCAAAAAABFIEAAAAAEEARCAAAAAABFIEAAAAAEEARCAAAAAABFIEAAAAAEEARCAAAAAABFIEAAAAAEEARCAAAAAABFIEAAAAAEEARCAAAAAABFIEAAAAAEEARCAAAAAABFIEAAAAAEEARCAAAAAABFIEAAAAAEEARCAAAAAABFIEAAAAAEEARCAAAAAABFIEAAAAAEEARCAAAAAABFIEAAAAAEEARCAAAAAABFIEAAAAAEEARCAAAAAABFIEAAAAAEEARCAAAAAABFIEAAAAAEEARCAAAAAABFIEAAAAAEEARCAAAAAABFIEAAAAAEEARCAAAAAABFIEAAAAAEEARCAAAAAABFIEAAAAAEEARCAAAAAABFIEAAAAAEEARCAAAAAABFIEAAAAAEEARCAAAAAABFIEAAAAAEEARCAAAAAABFIEAAAAAEEARCAAAAAABFIEAAAAAEEARCAAAAAABFIEAAAAAEEARCAAAAAABFIEAAAAAEEARCAAAAAABFIEAAAAAEEARCAAAAAABFIEAAAAAEEARCAAAAAABFIEAAAAAEEARCAAAAAABFIEAAAAAEEARCAAAAAABFIEAAAAAEEARCAAAAAABFIEAAAAAEEARCAAAAAABFIEAAAAAEEARCAAAAAABFIEAAAAAEEARCAAAAAABFIEAAAAAEEARCAAAAAABFIEAAAAAEEARCAAAAAABFIEAAAAAEEARCAAAAAABFIEAAAAAEEARCAAAAAABFIEAAAAAEEARCAAAAAABFIEAAAAAEEARCAAAAAABFIEAAAAAEEARCAAAAAABFIEAAAAAEEARCAAAAAABFIEAAAAAEEARCAAAAAABFIEAAAAAEEARCAAAAAABFIEAAAAAEEARCAAAAAABFIEAAAAAEEARCAAAAAABFIEAAAAAEEARCAAAAAABFIEAAAAAEEARCAAAAAABFIEAAAAAEEARCAAAAAABFIEAAAAAEEARCAAAAAABFIEAAAAAEEARCAAAAAABFIEAAAAAEEARCAAAAAABFIEAAAAAEEARCAAAAAABFIEAAAAAEEARCAAAAAABFIEAAAAAEEARCAAAAAABFIEAAAAAEEARCAAAAAABFIEAAAAAEEARCAAAAAABFIEAAAAAEEARCAAAAAABFIEAAAAAEEARCAAAAAABFIEAAAAAEEARCAAAAAABFIEAAAAAEEARCAAAAAABFIEAAAAAEEARCAAAAAABFIEAAAAAEEARCAAAAAABFIEAAAAAEEARCAAAAAABFIEAAAAAEEARCAAAAAABFIEAAAAAEEARCACwQuy+69AFqe1cAQA4/xSBAAArxIVYmikCAQBWDkUgAMAKoQgEAOBcUgQCAKwQikAAAM4lRSAAwAqhCAQA4FxSBAIArBDN0uzgni1l9exsmV29pew5eHBou6btazvbzK4t21u2mbRuGge3ry2rVq0qa7cfHHrdtm3Tnu1bytot27uvFYEAACuHIhAAYIVolmZ7tqzuFm+zs6vLlj1vfRHYtr7NwYPby9qqwFyrCAQAWGkUgQAAK0Rdmh08uKdsWV2VaWuHSrXaoCRc3Vk/UvZNWjc8xtruTxzWZePaLXsWbDPpJwIX7F9t0593tay7fPUWRSAAwAqiCAQAWCEGRWD/14JXb9mz4Kf6musGP33XXz9pXfM4ve3mf9Jw3E8OjisCB8fpF5TN/f1EIADAyqUIBABYIerSrPqpvvpXghf+JN78uup9s4SbtK5631T99N72LVvK2tXjfwV5sSKw2qcqA/c09lMEAgCsXIpAAIAVoirNBr8W3P+PhIwWa6NlX+99exHYXFcfozIo8lavLVu21z91OH0RWK3b3hm7el9bvbZ9vopAAICVQxEIALBCdIvAfknXLNkq0/zU36R1zeNMu92kIrC7/uCe3n8huP/vAna3UwQCAKxYikAAgBWiKs2qkm60cGsuG/z7fGfxbwQOj1dvN/1PBNavq+P0xmusUwQCAKxYikAAgBWiKs26vxY8Ut4NfpW38evBVfF2pv/V4OZ/3bcqANeuXVg+dreb8BOBezrv659c7I7RLwW76+o5dI6tCAQAWDkUgQAAK8SFWJopAgEAVg5FIADACqEIBADgXFIEAgCsEIpAAADOJUUgAMAKUZVmF6K2cwUA4PxTBAIAAABAAEUgAAAAAARQBAIAAABAAEUgAAAAAARQBAIAAABAAEUgAAAAAARQBAIAAABAAEUgAAAAAARQBAIAAABAAEUgAAAAAARQBAIAAABAAEUgAAAAAARQBAIAAABAAEUgAAAAAARQBAIAAABAAEUgAAAAAARQBAIAAABAAEUgAAAAAARQBAIAAABAAEUgAAAAAARQBAIAAABAAEUgAAAAAARQBAIAAABAAEUgAAAAAARQBAIAAABAAEUgAAAAAARQBAIAAABAAEUgAAAAAARQBAIAAABAAEUgAAAAAARQBAIAAABAAEUgAAAAAARQBAIAAABAAEUgAAAAAARQBAIAAABAAEUgAAAAAARQBAIAAABAAEUgAAAAAARQBAIAAABAAEUgAAAAAARQBAIAAABAAEUgAAAAAARQBAIAAABAAEUgAAAAAARQBAIAAABAAEUgAAAAAARQBAIAAABAAEUgAAAAAARQBAIAAABAAEUgAAAAAARQBAIAAABAAEUgAAAAAARQBAIAAABAAEUgAAAAAARQBAIAAABAAEUgAAAAAARQBAIAAABAAEUgAAAAAARQBAIAAABAAEUgAAAAAARQBAIAAABAAEUgAAAAAARQBAIAAABAAEUgAAAAAARQBAIAAABAAEUgAAAAAARQBAIAAABAAEUgAAAAAARQBAIAAABAAEUgAAAAAARQBAIAAABAAEUgAAAAAARQBAIAAABAAEUgAAAAAARQBAIAAABAAEUgAAAAAARQBAIAAABAAEUgAAAAAARQBAIAAABAAEUgAAAAAARQBAIAAABAAEUgAAAAAARQBAIAAABAAEUgAAAAAARQBAIAAABAAEUgAAAAAARQBAIAAABAAEUgAAAAAARQBAIAAABAAEUgAAAAAARQBAIAAABAAEUgAAAAAARQBAIAAABAAEUgAAAAAARQBAIAAABAAEUgAAAAAARQBAIAAABAAEUgAAAAAARQBAIAAABAAEUgAAAAAARQBAIAAABAAEUgAAAAAARQBAIAAABAAEUgAAAAAARQBAIAAABAAEUgAAAAAARQBAIAAABAAEUgAAAAAARQBAIAAABAAEUgAAAAAARQBAIAAABAAEUgAAAAAARQBAIAAABAAEUgAAAAAARQBAIAAABAAEUgAAAAAARQBAIAAABAAEUgAAAAAARQBAIAAABAAEUgAAAAAARQBAIAAABAAEUgAAAAAARQBAIAAABAAEUgAAAAAARQBAIAAABAAEUgAAAAAARQBAIAAABAAEUgAAAAAARQBAIAAABAAEUgAAAAAARQBAIAAABAAEUgAAAAAARQBAIAAABAAEUgAAAAAARQBAIAAABAAEUgAAAAAARQBAIAAABAAEUgAAAAAARQBAIAAABAAEUgAAAAAARQBAIAAABAAEUgAAAAAARQBAIAAABAAEUgAAAAAARQBAIAAABAAEUgAAAAAARQBAIAAABAAEUgAAAAAARQBAIAAABAAEUgAAAAAARQBAIAAABAAEUgAAAAAARQBAIAAABAAEUgAAAAAARQBAIAAABAAEUgAAAAAARQBAIAAABAAEUgAAAAAARQBAIAAABAAEUgAAAAAARQBAIAAABAAEUgAAAAAARQBAIAAABAAEUgAAAAAARQBAIAAABAAEUgAAAAAARQBAIAAABAAEUgAAAAAARQBAIAAABAAEUgAAAAAARQBAIAAABAAEUgAAAAAARQBAIAAABAAEUgAAAAAARQBAIAAABAAEUgAAAAAARQBAIAAABAAEUgAAAAAARQBAIAAABAAEUgAAAAAARQBAIAAABAAEUgAAAAAARQBAIAAABAAEUgAAAAAARQBAIAAABAAEUgAAAAAARQBAIAAABAAEUgAAAAAARQBAIAAABAAEUgAAAAAARQBAIAAABAAEUgAAAAAARQBAIAAABAAEUgAAAAAARQBAIAAABAAEUgAAAAAARQBAIAAABAAEUgAAAAAARQBAIAAABAAEUgAAAAAARQBAIAAABAAEUgAAAAAARQBAIAAABAAEUgAAAAAARQBAIAAABAAEUgAAAAAARQBAIAAABAAEUgAAAAAARQBAIAAABAAEUgAAAAAARQBAIAAABAAEUgAAAAAARQBAIAAABAAEUgAAAAAARQBAIAAABAAEUgAAAAAARQBAIAAABAAEUgAAAAAARQBAIAAABAAEUgAAAAAARQBAIAAABAAEUgAAAAAARQBAIAAABAAEUgAAAAAARQBAIAAABAAEUgAAAAAARQBAIAAABAAEUgAAAAAARQBAIAAABAAEUgAAAAAARQBAIAAABAAEUgAAAAAARQBAIAAABAAEUgAAAAAARQBAIAAABAAEUgAAAAAARQBAIAAABAAEUgAAAAAARQBAIAAABAAEUgAAAAAARQBAIAAABAAEUgAAAAAARQBAIAAABAAEUgAAAAAARQBAIAAABAAEUgAAAAAARQBAIAAABAAEUgAAAAAARQBAIAAABAAEUgAAAAAARQBAIAAABAAEUgAAAAAARQBAIAAABAAEUgAAAAAARQBAIAAABAAEUgAAAAAARQBAIAAABAAEUgAAAAAARQBAIAAABAAEUgAAAAAARQBAIAAABAAEUgAAAAAARQBAIAAABAAEUgAAAAAARQBAIAAABAAEUgAAAAAARQBAIAAABAAEUgAAAAAARQBAIAAABAAEUgAAAAAARQBAIAAABAAEUgAAAAAARQBAIAAABAAEUgAAAAAARQBAIAAABAAEUgAAAAAARQBAIAAABAAEUgAAAAAARQBAIAAABAAEUgAAAAAARQBAIAAABAAEUgAAAAAARQBAIAAABAAEUgAAAAAARQBAIAAABAAEUgAAAAAARQBAIAAABAAEUgAAAAAARQBAIAAABAAEUgAAAAAARQBAIAAABAAEUgAAAAAARQBAIAAABAAEUgAAAAAARQBAIAAABAAEUgAAAAAARQBAIAAABAAEUgAAAAAARQBAIAAABAAEUgAAAAAARQBAIAAABAAEUgAAAAAARQBAIAAABAAEUgAAAAAARQBAIAAABAAEUgAAAAAARQBAIAAABAAEUgAAAAAARQBAIAAABAAEUgAAAAAARQBAIAAABAAEUgAAAAAARQBAIAAABAAEUgAAAAAARQBAIAAABAAEUgAAAAAARQBAIAAABAAEUgAAAAAARQBAIAAABAAEUgAAAAAARQBAIAAABAAEUgAAAAAARQBAIAAABAAEUgAAAAAARQBAIAAABAAEUgAAAAAARQBAIAAABAAEUgAAAAAARQBAIAAABAAEUgAAAAAARQBAIAAABAAEUgAAAAAARQBAIAAABAAEUgAAAAAARQBAIAAABAAEUgAAAAAARQBAIAAABAAEUgAAAAAARQBAIAAABAAEUgAAAAAARQBAIAAABAAEUgAAAAAARQBAIAAABAAEUgAAAAAARQBAIAAABAAEUgAAAAAARQBAIAAABAAEUgAAAAAARQBAIAAABAAEUgAAAAAARQBAIAAABAAEUgAAAAAARQBAIAAABAAEUgAAAAAARQBAIAAABAAEUgAAAAAARQBAIAAABAAEUgAAAAAARQBAIAAABAAEUgAAAAAARQBAIAAABAAEUgAAAAAARQBAIAAABAAEUgAAAAAARQBAIAAABAAEUgAAAAAARQBAIAAABAAEUgAAAAAARQBAIAAABAAEUgAAAAAARQBAIAAABAAEUgAAAAAARQBAIAAABAAEUgAAAAAARQBAIAAABAAEUgAAAAAARQBAIAAABAAEUgAAAAAARQBAIAAABAAEUgAAAAAARQBAIAAABAAEUgAAAAAARQBAIAAABAAEUgAAAAAARQBAIAAABAAEUgAAAAAARQBAIAAABAAEUgAAAAAARQBAIAAABAAEUgAAAAAARQBAIAAABAAEUgAAAAAARQBAIAAABAAEUgAAAAAARQBAIAAABAAEUgAAAAAARQBAIAAABAAEUgAAAAAARQBAIAAABAAEUgAAAAAARQBAIAAABAAEUgAAAAAARQBAIAAABAAEUgAAAAAARQBAIAAABAAEUgAAAAAARQBAIAAABAAEUgAAAAAARQBAIAAABAgJmrP7urAAAAAAAXsl3l/wNW0mtwhATxBgAAAABJRU5ErkJggg==" parent="1" vertex="1">
          <mxGeometry x="-7210" y="-4904.28" width="4947.97" height="3438.85" as="geometry" />
        </mxCell>
        <mxCell id="JnT7Of5y65wp5LKCxjLl-1" value="" style="html=1;shadow=0;dashed=0;align=center;verticalAlign=middle;shape=mxgraph.arrows2.arrow;dy=0.79;dx=388.48;notch=0;rotation=-90;fillColor=#FF0000;strokeColor=#b85450;" parent="1" vertex="1">
          <mxGeometry x="-7590" y="-3350" width="3258.95" height="573.31" as="geometry" />
        </mxCell>
        <mxCell id="JnT7Of5y65wp5LKCxjLl-2" value="" style="rounded=0;whiteSpace=wrap;html=1;" parent="1" vertex="1">
          <mxGeometry x="-6680" y="-1410" width="1560" height="600" as="geometry" />
        </mxCell>
        <mxCell id="JnT7Of5y65wp5LKCxjLl-3" value="&lt;h1 style=&quot;font-size: 90px;&quot;&gt;&lt;font style=&quot;font-size: 90px;&quot;&gt;Cliquez sur le menu &quot;Invite&quot; pour afficher le menu item &quot;inviter&quot;&lt;/font&gt;&lt;span style=&quot;&quot;&gt;&amp;nbsp;&lt;/span&gt;&lt;/h1&gt;" style="text;html=1;strokeColor=none;fillColor=none;spacing=5;spacingTop=-20;whiteSpace=wrap;overflow=hidden;rounded=0;fontSize=60;align=center;" parent="1" vertex="1">
          <mxGeometry x="-6620" y="-1330" width="1425" height="450" as="geometry" />
        </mxCell>
        <UserObject label="&lt;font color=&quot;#000000&quot;&gt;Text&lt;/font&gt;" link="data:page/id,4DiCCQLFJep2SXTb6jMK" id="uxEwckfzeaMAZckKThhj-1">
          <mxCell style="text;html=1;strokeColor=none;fillColor=none;align=center;verticalAlign=middle;whiteSpace=wrap;rounded=0;" parent="1" vertex="1">
            <mxGeometry x="-6030" y="-4780" width="160" height="70" as="geometry" />
          </mxCell>
        </UserObject>
      </root>
    </mxGraphModel>
  </diagram>
  <diagram id="4DiCCQLFJep2SXTb6jMK" name="Item menu inviter">
    <mxGraphModel grid="1" page="1" gridSize="10" guides="1" tooltips="1" connect="1" arrows="1" fold="1" pageScale="1" pageWidth="827" pageHeight="1169" math="0" shadow="0">
      <root>
        <mxCell id="0" />
        <mxCell id="1" parent="0" />
        <mxCell id="-3GfU21WHbobLdxMOXTY-3" value="" style="shape=image;verticalLabelPosition=bottom;labelBackgroundColor=default;verticalAlign=top;aspect=fixed;imageAspect=0;image=data:image/png,iVBORw0KGgoAAAANSUhEUgAABQcAAAN9CAYAAAAuVM+rAAAAAXNSR0IArs4c6QAAAARnQU1BAACxjwv8YQUAAAAJcEhZcwAADsMAAA7DAcdvqGQAADeqSURBVHhe7d0PmB11fej/z56ktFyrvRQhwJKAl4Q/guA1AiEhAYFIobe1T7VKkSrGSIq1twgKj0URkIjSB6Styj8JFEjgtr2P9Rb5kxAgkBAFc9vIPyELSTYGSECx9f4kkJD9zcyZ3T2b7G42JJHA5/V6+jVzZubMmTPnnOU5787sth1wwAFdP/7xjwMAAAAAyKVt//3373r44Ydj+PDh9SwAAAAA4M1u3bp10ainAQAAAIBkxEEAAAAASKrR1dVVTwIAAAAAmThzEAAAAACSEgcBAAAAIKm2/fbbr+uRRx7Z5F8rXrhwYaz8ZVvssssu0bV+fT23ae26tbHjb+0Y615dF9FylXJboxGrV62Kdb/ojD896aR6LgAAAADweiv/WnHbvvvu2/Xoo49uMg7efPuC+B9HHho7VOs1C2BbW1usefnluPjiC+PEE/8gjjxyfLzychkOewvhq+vXxw+f7Iz3/fd96jkAAAAAwOutjINDvqz4d3faKYY3GvHK2nXFeLUa69Z3xXPPrYq777k7Lr74orj11tujK9rilXXN5eWI4vbLL61pbgQAAAAA2G4MOQ6+8vIr1VmA63vGq9Foa8TDDy+O5154IVb/8j/jsm9dHvfOuyeGDRterPtqz7pr166ttwIAAAAA29aiRYuGNLY35VW6g+1XuaxcZ2tqPPfkk/Xk4F5Zu7YKguuKUYW/rq5Ys2ZNfPfW/xPvbLTFBTvuGO9ftza+feXfx6pVz1X3aQbC8gzC/uPg7dPaqie04Zjwtx31Gq1uj2ltE6LfRYMuAwAAACCbsWPHDjq2Rz/60Y/iiAlH9hsIy3nlsnKdralxzYOP1pODKwPfunWvVr9OsNEYHsOG/UbMf2BBzL97Tnz6v7wlfn/HHeMLxb//9YmfxP/+1+/FsGKd9eujGi8PEAdPuKorurrKcVucFuPj8iXN2wv+anS9BgAAAADkUEbLhQvmbxQIu8NguWxrh81G3PyBenJwL7/ySjQaw2L5sqXxnWu+FWd/7i/j1u9/N4449NC4ffXqmNvZGQ88/XQcM2FCHHDAvrHymWfiRz96MP7t3xbF+lf7/nVjAAAAAGBjGwbCbRkGS42Dpn6vnhxcedbgrbf+S8ya+6N4cY8jY5eDjowjxx8Rx5xwQvzr//t/8ZWnnopzOztj35NOiolHHBbf+94/xxNPPB6PPPpw9bsKN0efy42n3V7PrS3525gw6OXHhY7eddrapkX3Fvrf7oaXJLtEGQAAAIDXT2sg3JZhsNS4+wNDO3Pw+eefj5kz/yGe6eyIw0f+Ruy2w5rYYfiw6vcOvn3MmHh8xx1j1Ac/GGMnTYq3/fZb47nnVsatt34vnln50/iP//iPeitD0+dy46svagl1D8QZF0X8Q7lsyeURZ3y8n4h3e0wb84/x4foS5WITcVG90sDbBQAAAKA/PSdabWLwxtQ4bPof1JOD+/kvXow1v/plLJt/c5zxZ78fjz90R+ywww7Rvsce8acnnRSfP/vs+PJ558VvFvNK73nPe+ORR34cTz/9VLy0Zk01b8hun1a/sU6Mq+tZTePj8n/4q6h+I+Hov4ovnvZAPLakWtCr48l4pIyIY+o354lXxwPdKw24XQAAAAD60zzRatODraf1UuLWS4y3hcYvDppaTw7ud37nv8bIvcbEnvu+N6b8+edi173Hxrr1XfG2t70txo8fH3/4h38Yo0aNqteO2HnnnePss79UzP9gFKsNXXlJ8IkRt1VvrCVx+fh6/kY64slH6smNnFbfvx5XnbAZ2wUAAACA18eGv2Nww99BuLU1PvNHf1RPDq78nYN/+T8/F2d+7ovxoT/+k9hpp53i5z//WXXJcHlp8Zo1L8XPfvazeOWVV6r1X311XRw58eg4YvzE+NVLL1XzhmTJY/HA+HfGmHK64/vxjw9Uc2sPxD9+v74WuFp2WvzRCc2bPUbvGwfF1T2XEvcYcLtj4p3jW85AvP1fnFUIAAAAwK/dQH98ZFsGwsZQrwkvLw3+1Uu/iscefSS++93/Xf2xkaeffjruv//+uOuuOfH9798Wt99+ezz00EPxwgsvxG+/9bdj7dp1sWbNy8W/a+utDMEJn4/L44wYU17++/HH4qA+Z/iNj4Me+3jz0uAxZ8RBt10VG7bBYgNxVfX7CMfUlxAXo/zjIwNud3T81RdPi6tPrNf9l/K8QwAAAADeyMqINtjYHr33ve/dKAx26w6E5TpbU9u+++7b9eijj8bw4cPrWf37i/Mvj4N3/51Y0tERnZ3L47lnV8SIEbvE0qXL4qWXXooddvjNYvxGHHbYYfHBD/5xPLfqZ7Hb7nvHzjv9btxw+9z4m7M/VW8JAAAAAHi9rVu3buhx8OQzzo/T/vgP4jd3+I3qTMAnfvJYLHnyJ/Hq+ldj5513ibe85S3x4A8fiJ+u7Iz999svDhs3Mfbf/13RNqwRfz/zn+Lmv7uw3hIAAAAA8HrbrDh44003xQ+X/kc0/7pIVzSGDasuw239azTlBn/xixerf3fe+e0xvFjn+VXPxntHj4jPffZ/1msBAAAAAK+3zYqDAAAAAMCbRxkHG/U0AAAAAJCMOAgAAAAASYmDAAAAAJCUOAgAAAAASYmDAAAAAJCUOAgAAAAASYmDAAAAAJBU25577tm1dOnSGD58eD0LyObcv7m6ntq+fW7qn8ROO+1U3wIAAAC2xLp166LtAx/4QNc///M/R6PhJELI6kuXficOOHhsfWv7dcrxY2P9+vX1LQAAAGBLlN+xhxX/c/5f/MVf1LOAjO5Z+G+xy4g96lvbp8d/vCiOnSAOAgAAwNbUdvDBB3ctWrQourq66llANudfft12f+ZgGQenf/60WLt2bT0HAAAA2BJtbW0xbMSIEedPmzZNHITE5v3w37f7MwdfWPVsdebgq6++Ws8BAAAAtkQZB3vOHCx/ASGQ01f+/oY3zJmDa9asqecAAAAAW6L8A8U9cfCVV16pZ7fqjJlTT4mrnqxvttp3Wtz0nY/GqPrmRhZMj0lfuLNY7ab4zkc3WKtedvzF98W5E+p5b3T1c2r1a3t+2+R4dr/2x8fF950b1WY7Z8bUU66K8u3Q+1gLYvqkL8Sdm3o/9KfeXvT3Htku9XNMKr3H4L5PLBvaa9H6msUQPyv1ehtNF4/TuWBm3Lhs7zj3o4M96MCmf+um/uPg49fF5Tf9IPYvXqffO6Cetzk2uP+Lj98RP1y9e/zeUYfUKwxddxz81a9+Vc/ZQMtnsPVYds6cGqfUP8Q2+bpsjvrx+n3dXm8tn9Ve+8bx084r3iPbdl8XTJ8UX7hzw89I4df9+gAAALBJO+ywQ/T8ieLysuKNx8g4+Zp5MW9eMS4+vlrv+Ivr29ecHCP7vU89qrWL7ZZjgGXl0o2WvVFH/Yx6jk8x/np8P+ttizH+r7fB442Mie8bUzyjp2NZZ3Ne5/1398SGp5d1NtfrXFasETHmfRMHfz/0N4r79Yz+lm93o/uY3Bn3LmiZv+DeYk7zGAz5tWhdr7hvqd/j0M965Zp9H2dB3PiFq+LOZa/9OG4zB3wizpjeHRYXxw9v+m78ZHW15DXrb/+rUS8vPXn3/dFZz1+xrDWRbXCfLRk9W3ztx32bjXq/xky7qXqflOPi47vizqsuiJn153lbjR4bLqtnl34tr49hGIZhGIZhGIaxyVHqiYPlXwAdfDTv0LXB/OUzp8fUo46Ko6oxNabPXN5n/Vh6Q8/yqRss69nW8pkxfWq9janTY+byen4xBtz+/Ol9tjl/erl8esyvt1fdZ/r8lmVT+2x364/+j085+n8Oy2Nm+Zynzozl1XrzY3rLPg98TOr1pk6tt1k8539pHovp8wd4vHr+5o72Ue8ontGSWFo99vK47+4lxe0xMWZMMffu+5r7vXxpsUbEO0a1N++3Ofu9sn6PdDXX2fB1GvB5dL/203uX9763BntPFqN1/wZbtsH7sHu0T3hfcQQi7rynfp2KsXxplUfjfROKY1Dv2yZfiz7rDfJZ6We96j1Wz2++j75Qxcm48wvFftfvpyE8l9YxJM/fETPPnRYz/+m6uOOb0+Lycy+KO+Y9Vyx4Lh4qb3/zjnixWnFx3FGsd/k/LW6eOVhM3/F4uc634yfl4n//du+6xTab2yrvf1089Hw5c3D97X9zNI/PmOoNurTnc3VPcXCqeYVN/sxpeW91L586fWbM73kdW98zg7xugz1Gf5+FYtnW+tw2R9/PVjnGTWr9PBdjkPfIwJ+hgfZ9as927qkeuqtnW71jK7w+xfzycXtfn5Z9637t6tt9/ptgGIZhGIZhGIZh9DtKQ4+DdU3savmyuX75rPjK1Uvj6Ovnxty5c+OiyUti9tU3xoKW9Zcs3SvOLZZd/6kxseTqj8VXF2ywrWIbp33s6lh69PXFNq6Pi/aeHVd/7KvNbQxh+91ffps3u5pfLts/Eh+fXNycfX3MmvXVOHd2MT354/GR9ua622T0d3zKMeBzaI9Rexd3KL4kd1brLYul5W5OGlfcb0F8tTgms/e+KK4vj93RS4tjclrMqr4gF8+xfKAle8fHi2Vz554T43buezy/cnXxhCdf1Pt459bHc3NH+15VCFu6rPiyvfz+uKesgMVx/HjLfi+4tzy4Y2Kv6thu5n6PaO53+Roun3Va9TpNvujK5us02PMY7L012Htmw/27aO9iWe/9Bnwfto728XF0eVBm31svWx73lwdmzNExvtzvDd7bm3oO1XqDPZ9+1mud/uqC9vjIlRdF+XavHufKj0T7UJ9Ly9gcz6/aPQ7/zAUxYfcV8ZPZt8dTsVv87ohiwbPPxs+rFZ6NnxX/7H9Q66XDu8Whn/l07F9OvvvTccZnfi92KmPj5d+Nn73rgjhj+gXxByN+EAsuv67Y3uD62/9q1Mck9t67eEfOjnvL47fg3mJqTBx9dPmm7X1dBjw+La/FyVfWr8Xsq+PcpZOq16bP+6ll3f7ehwO/Bv18FtZvxc9tNepjUT7fel7zszo5Jo0rbw/yWa3etwN9hgba9yUx5lPFc71yUnSVD9P9s7h1bI3Xp35ezdfn+vjUmI1fj37/m2AYhmEYhmEYhmH0O0qbuKy4dfSs2Dtvz4/EFXf9dYyaf3N8bdq0+OKccoWl9WWo1dox+qjxsWdxY8/xR8Xocml1OWpzWTnROf+eWFIsOWr8nsXNPWPcpDJzzIl5Dwxt+z370rzZc3vcOV8pvgYviWuuKe80Ob5yzrjedbfJaD7+nC8eG8ceW4xpNzcvmxvkObQ+1+ZxKL+4F9M3X1/MHR1TTx7XcuyWxD3zm5fyViZPinHV4/Y+djlR3S4ml8y5PqZ97YFoP/muuOuu4gt8z7qbMfYcFVUHvGd+dK5YVuxB+bDj6v0un0NnLCuL5uijYvyer2W/i1HMWnLNqXHqNcW7YPJX4pzi+fdZ1u/zqLbU/3trsPfMA/OK/Ws+h+p+484ptnlX9ZiDvg+rx+wee8b4o8pHq5d1zq+iafe+FP/X1L1+MTnYc2iu15zc1Gdl4OmeG9X00J9L79gcu7zr3bFTdxCs7XPQuOJ/fxBLHo948bEfxfMxLsZs4ncUNtcbGfu+c7fi1m59tjGY/va/Oerle02K8iWaM++B6KzeoHvHqO5fs1esNPjxaa7W81pUBb/3PdO+V/XKbPJn3KZeg0p/n4Wt8bntHuX2is9W9fOoGOVnYXTxmO3FskE/q4P+3N143/s+13FRPdVCn32pRj1/i16fYhS3msd8z+b/g6XQZ/vVdHO9PrcNwzAMwzAMwzCMjUZpy84c7Lw5/vy4T8SX7l0Woz7213HhcdUqzXXq9ffuvty0vRmaOpat6LOt5mRHfOcTx8VxxxXjS9U30eoL9lC2X26g3H7zZvHEuvdt/eExsV5/9HET4/Ce+dto1Ptz3IWzY/bsYnz7w9Fezh/sORw+Mcqb5ZfkFcs6ijs397P3qdXbbj123Wfu1M+79bGr9ds/HB/7ZJkoOqJjzpfiE8Vx/fOv3dw8O3GzR30MO5bFzHnl6zI6RpVnxxX7M7rY/r0zZ8a9xW4XL3L1XF/rfnfrmDMvHuheNtjzqO/X73trkOPdDBEt+9cympsc4H24wbrtfSLQvcW9ypBR70u9b5t8LVrXG+z59LPeRtMbHNvmoqE9l+6xxQ54T3VW4E8eWRw/X70i4t3viX2aSzZhRSy4vL6s+KYfVHN+trq8VHlg/e1/NepjEl31WblL58XM8g1afq5ajtegx6dnG/X7tOV+5e3exb3L+nvdmosGeg36+Sxs1c9tMep9G/3JGc2fR8WYUXwYym1Pv7k3Onc/r6F+hvrb9w231T6qfB7FevXyntGz4tZ7fZo368cabJlhGIZhGIZhGIbR7yht0ZmDK+bPK77CjY4pX/h8fPjw9uaXxuIr5qj23vWXVV+Ui9srlsWy4vbo4ot097JyojldbOPaO+POO3vHtz7cPqTtN7dRjJ6b9e0Vt8QNdzXnddx1Q9yyop6/zUbzscqJ1vmDP4c6vhX7d0NxcI6beHh9v2qlnm30PXY9D9S7fIPHPvzD3yqO4bVx7QVT4rjie3rHXdfGrIWt6w99NL/ol2cxFf+MnhTjy/1uHx+Tqu3eVTy3Ldnvet7oKcW+Vgcibrilfr8UY+Dn0bxbf++twY53e+9pRj2P0TvKBf2/Dzdat/v5z5sVs+YVR6D7uFTLq0cYwmvRul5zcmiflf6me25U082bQ3wu9dhyh8SYdxf//Pu/xg9WbXhJ8WBGxoQzrqr+aEn3+OhR5ZmEA+tv/5ujZ4U4vPxgdRTv2/Ll2YyfOX3X67vN1tut0wO/bgO/Bk3d22yOrfm5LUfzIXpvt9f/z4iO5eX+di+ulw/xM9Sz3T77Xs+pb69YXv5UaNl2z6hmV/v02l+fngerpnvv1nf7Gy8zDMMwDMMwDMMw+hulLTtzsJrXEctXFNOdC+O+KsaVl5/1rt8xb3519ktn9YVzn5h4xB59trXHEROLuR0xb37zrKbOWz4dxx//6bilZxsDbH+PkdWZSc396V5WPLFq3zrjlq/OKO55bJx/zSeq7c/46i2v/SycoYz+jk/P/AGeQ7H8sCOPrZZ3dBwbRx7WnNd9TGbMWrjxsRvkDLzqsRdeUhy/4+PTtxTbOexP4iMTy+33s19DHHuM2qu6f2mfiUfEHtX8PaJ39j4xco963c3d73petd3Dzorzi13tmDErFpbLBnse9fMd+L01wPE+7MjiHRFx133N/VvfeUt8unqMzsHfh9W+to494oiJxbuvjhu9x6UYQ30tWtfb5PMZ+D7V9AbHdvOeS3NsDc3LglfE889u+pLi0k7vfG/sUqz/5GPNMwVfnHdR9UdONvVHSfrb/2q0HpP650P5/tz8nzndx3Wg2/XPmXpZf6/b4K9BP5+Frfy57X6M1vt3Lrwvyo/DPiN796/fz2r1vAb6mbXxvvd9rhv+LG4Z9fGq9um1vj4bPK/m3erHGvS/CYZhGIZhGIZhGEZ/ozT0OFh8KSu1ftHa40Nnx6nFt7G5558QJ3zqxug6pvxq9lTzS2W9/j57LY+vnXBCfOq6p2KfU8+OD1UhqWVbe3wo/u68YyKu+1ScUK0Xccx5f1etN+j2i/t9tLj9VHm/z9xXLKu2WO1X5//6WhQPV2znzDi0WO/sciNPXRdf+1/NL5vbZmx8fMox+DEqxqETotr1YybEod33K4/JVafGMcvOj0+Vx+S+veLUq5rHpFze/D5cr1uNlsc+9My4qs/xXBbHnHpVnHlo6/qbMbr3r/wSP674El/PP3RCc27sMzHG1fv1Wve7e96hHz61eJS5cWP5Og36PJr3K99bN3+mfs/U763Bj/ehcWbL/p3QfLPF332oeF6DvA9797d37DGuDBjVXvQ5LkN/LVrWa3k+g35WBpw+ND7cfNLF4/xNLNzM51KOraK+tHjgS4oPicPfP7L514rPvS6e2uX34qOnjIuY/eXqsuJ/mB2x/ylfjEN3qVcfQH/73xzNY1IclOL1HBdlv43Yq47XLcdr0OPTso2WbTaPczF6Fvcu6/d128RrUN2z9bOwtT+39b5VPx+L7VXbPH9u7FO838/ufr8P8Fnd1M+sjfa92Fb5M7a/n8V9R8/B23qvT3NnmtPF/Qb6b4JhGIZhGIZhGIbR/yi1HXzwwV2LFi2KF154oZoB270HL4v/ceHdsc+pV8bffmjPeiZb4u9v/D9xwMFj61vbp8d/vCimf/60eO65wX8nIQAAADA0b3/723vj4OrVq+vZsJ178BvxhxfdE//t41fE5R9sr2eyJb4189Y3TBx85pln6jkAAADAlth111174+CqVavq2UA23571/TdMHFy5cmU9BwAAANgSI0aM6I2Dzz77bD0byObKW25/w8TBFStW1HMAAACALbH77rv3xkFn40BeV//jnW+YOLh8+fJ6DgAAALAl2tvbY9iIESPOnzZtWvznf/5nPRvI5v8+9lTsMmKP+tb26YVVz8axE8bGL37xi3oOAAAAsCXe9ra39Z45+Mtf/rKeDWTz+W8urqfevP7mM4fUUwAAAEDprW99a28cXLz4zR8HgP5dcdsv4ztfOrq+9eYz9Sv3xuknvrW+BQAAAJQOOeSQaNttt926yl/w/+VvzKhnA9msWrNvFQdffPHFes6bS3lm5IjferK+BQAAAJQu+OyUaHv3u9/d9dBDD1Vx8P2H7VcvAjK58b6uN30c/LNJbfUtAAAAYPaDT1RxsHHqqafWswAAAACATBr7779/PQkAAAAAZNJYu3ZtPQkAAAAAZNJ49tln60kAAAAAIJPGHXfcUU8CAAAAAJk0HnzwwXoSoB8LL4nJkyfHJQvr25trg/uvWHhLXHLLa90YAAAAsDU1hg8fXk8C9OOIs2POnDlx9hH17c3V5/4L4+bzro05ndUSAAAA4HXWeMtb3lJPAvSj9cy/FbfE6cX06ZdcEpecPrmYf3pccsuKckHcUt4+/ZZiqrpTXFKsN7m8U8/9y3XOiznl4jnn9a5bbLO5rfL+l0S1uUq9jdNPrx5z8uRLotgEAAAAsBU1hg0bVk8CDE3H0lHxp1fMiE+O7og5194cC2Nk7PWOckFn/LRcYcXyWFr8M3li6+mGI+OkKy6MyeXk5AtjzhUnxcgyNk65NpYeNSPmzJkRF75jTlw75ZJiey063hEfmzOnWH52HDGyngcAAABsFY36X4AhG33UhBjZHQRrR0wss9+cuH9hxIoF86IjJkefNtiP5nqj46gJZfUb2WcbPSZPjNd6RTMAAAAwOHEQ2DqOmFidFTjn/oXx086OzYh6HXHtlPqy4vOqi45j6XLXDwMAAMCvgzgIbCVHRPPEvxvihqUbXlI8mNHxyRnlZcO944qTXD8MAAAAvw7iILDVNC8L7oiOjk1fUlwaOeGoGF2sP29B80zBFbecXv2Rk94/SgIAAABsS+IgsPXUlxYPfEnxEfGnnxzd/GvFky+JhSNPiisuLO5x7ZTqsuIp15Z/q+SKcOIgAAAA/Hq0HXzwwV2LFi2KL39jRrz/sP3q2UAmN97XFd/50tHx4osv1nPeXD7/zcXxZ5Pa6lsAAADA7AefiAs+O8WZgwAAAACQlTgIAAAAAEmJgwAAAACQlDgIAAAAAEmJgwAAAACQlDgIAAAAAEm1HXzwwV2LFi2KL39jRrz/sP3q2UAmN97XVU+9ef3ZpLZ6CgAAAJj94BNxwWeniIMAAAAAkE13HHRZMQAAAAAkJQ4CAAAAQFLiIAAAAAAk1Rg2XB8EAAAAgIwaP3/m/6snAQAAAIBMGsN/05mDAAAAAJCRMggAAAAASYmDAAAAAJCUOAgAAAAASYmDAAAAAJCUOAgAAAAASYmDAAAAAJCUOAgAAAAASYmDAAAAAJCUOAgAAAAASYmDAAAAAJCUOAgAAAAASYmDAAAAAJBU46nlL9eTAAAAAEAmjW/95bJ6EgAAAADIpDFq/8/WkwAAAABAJo31O42oJwEAAACATBofOPmb9SQAAAAAkEkj3vaWehIAAAAAyKRx5ZTn60kAAAAAIJPGn8/YpZ4EAAAAADJp7LNTPQUAAAAApNKo/wUAAAAAkhEHAQAAACApcRAAAAAAkhIHAQAAACApcRAAAAAAkhIHAQAAACApcRAAAAAAkmo8tfyJehIAAAAAyKSxz1771ZMAAAAAQCYuKwYAAACApMRBAAAAAEhKHAQAAACApMRBAAAAAEhKHAQAAACApMRBAAAAAEhKHAQAAACApMRBAAAAAEhKHAQAAACApMRBAAAAAEiq8dKv1tSTAAAAAEAmjXe/55B6EgAAAADIxGXFAAAAAJBU4747H6gnAQAAAIBMGsf8/qR6EgAAAADIpLFu3bp6EgAAAADIxO8cBAAAAICkxEEAAAAASEocBAAAAICkxEEAAAAASEocBAAAAICkxEEAAAAASEocBAAAAICkxEEAAAAASKoxfPjwehIAAAAAyKTxowcX1ZMAAAAAQCaNHf/Lb9WTAAAAAEAmfucgAAAAACQlDgIAAABAUuIgAAAAACQlDgIAAABAUuIgAAAAACQlDgIAAABAUuIgAAAAACQlDgIAAABAUo1hjWH1JAAAAACQSWPFT1fWkwAAAABAJo2Re7bXkwAAAABAJo1X179aTwIAAAAAmfiDJAAAAACQlDgIAAAAAEmJgwAAAACQlDgIAAAAAEmJgwAAAACQlDgIAAAAAEmJgwAAAACQlDgIAAAAAEmJgwAAAACQlDgIAAAAAEmJgwAAAACQlDgIAAAAAEmJgwAAAACQlDgIAAAAAEmJgwAAAACQlDgIAAAAAEmJgwAAAACQlDgIAAAAAEmJgwAAAACQlDgIAAAAAEmJgwAAAACQlDgIAAAAAEmJgwAAAACQlDgIAAAAAEmJgwAAAACQlDgIAAAAAEmJgwAAAACQlDgIAAAAAEmJgwAAAACQlDgIAAAAAEmJgwAAAACQlDgIAAAAAEmJgwAAAACQlDgIAAAAAEmJgwAAAACQlDgIAAAAAEmJgwAAAACQlDgIAAAAAEmJgwAAAACQlDgIAAAAAEmJgwAAAACQlDgIAAAAAEmJgwAAAACQlDgIAAAAAEmJgwAAAACQlDgIAAAAAEmJgwAAAACQlDgIAAAAAEmJgwAAAACQlDgIAAAAAEmJgwAAAACQlDgIAAAAAEmJgwAAAACQlDgIAAAAAEmJgwAAAACQlDgIAAAAAEmJgwAAAACQlDgIAAAAAEmJgwAAAACQlDgIAAAAAEmJgwAAAACQlDgIAAAAAEmJgwAAAACQlDgIAAAAAEmJgwAAAACQlDgIAAAAAEmJgwAAAACQlDgIAAAAAEmJgwAAAACQlDgIAAAAAEmJgwAAAACQlDgIAAAAAEmJgwAAAACQlDgIAAAAAEmJgwAAAACQlDgIAAAAAEmJgwAAAACQlDgIAAAAAEmJgwAAAACQlDgIAAAAAEmJgwAAAACQlDgIAAAAAEmJgwAAAACQlDgIAAAAAEmJgwAAAACQlDgIAAAAAEmJgwAAAACQlDgIAAAAAEmJgwAAAACQlDgIAAAAAEmJgwAAAACQlDgIAAAAAEmJgwAAAACQlDgIAAAAAEmJgwAAAACQlDgIAAAAAEmJgwAAAACQlDgIAAAAAEmJgwAAAACQlDgIAAAAAEmJgwAAAACQlDgIAAAAAEmJgwAAAACQlDgIAAAAAEmJgwAAAACQlDgIAAAAAEmJgwAAAACQlDgIAAAAAEmJgwAAAACQlDgIAAAAAEmJgwAAAACQlDgIAAAAAEmJgwAAAACQlDgIAAAAAEmJgwAAAACQlDgIAAAAAEmJgwAAAACQlDgIAAAAAEmJgwAAAACQlDgIAAAAAEmJgwAAAACQlDgIAAAAAEmJgwAAAACQlDgIAAAAAEmJgwAAAACQlDgIAAAAAEmJgwAAAACQlDgIAAAAAEmJgwAAAACQlDgIAAAAAEmJgwAAAACQlDgIAAAAAEmJgwAAAACQlDgIAAAAAEmJgwAAAACQlDgIAAAAAEmJgwAAAACQlDgIAAAAAEmJgwAAAACQlDgIAAAAAEmJgwAAAACQlDgIAAAAAEmJgwAAAACQlDgIAAAAAEmJgwAAAACQlDgIAAAAAEmJgwAAAACQlDgIAAAAAEmJgwAAAACQlDgIAAAAAEmJgwAAAACQlDgIAAAAAEmJgwAAAACQlDgIAAAAAEmJgwAAAACQlDgIAAAAAEmJgwAAAACQlDgIAAAAAEmJgwAAAACQlDgIAAAAAEmJgwAAAACQlDgIAAAAAEmJgwAAAACQlDgIAAAAAEmJgwAAAACQlDgIAAAAAEmJgwAAAACQlDgIAAAAAEmJgwAAAACQlDgIAAAAAEmJgwAAAACQlDgIAAAAAEmJgwAAAACQlDgIAAAAAEmJgwAAAACQlDgIAAAAAEmJgwAAAACQlDgIAAAAAEmJgwAAAACQlDgIAAAAAEmJgwAAAACQlDgIAAAAAEmJgwAAAACQlDgIAAAAAEmJgwAAAACQlDgIAAAAAEmJgwAAAACQlDgIAAAAAEmJgwAAAACQlDgIAAAAAEmJgwAAAACQlDgIAAAAAEmJgwAAAACQlDgIAAAAAEmJgwAAAACQlDgIAAAAAEmJgwAAAACQlDgIAAAAAEmJgwAAAACQlDgIAAAAAEmJgwAAAACQlDgIAAAAAEmJgwAAAACQlDgIAAAAAEmJgwAAAACQlDgIAAAAAEmJgwAAAACQlDgIAAAAAEmJgwAAAACQlDgIAAAAAEmJgwAAAACQlDgIAAAAAEmJgwAAAACQlDgIAAAAAEmJgwAAAACQlDgIAAAAAEmJgwAAAACQlDgIAAAAAEmJgwAAAACQlDgIAAAAAEmJgwAAAACQlDgIAAAAAEmJgwAAAACQlDgIAAAAAEmJgwAAAACQlDgIAAAAAEmJgwAAAACQlDgIAAAAAEmJgwAAAACQlDgIAAAAAEmJgwAAAACQlDgIAAAAAEmJgwAAAACQlDgIAAAAAEmJgwAAAACQlDgIAAAAAEmJgwAAAACQlDgIAAAAAEmJgwAAAACQlDgIAAAAAEmJgwAAAACQlDgIAAAAAEmJgwAAAACQlDgIAAAAAEmJgwAAAACQlDgIAAAAAEmJgwAAAACQlDgIAAAAAEmJgwAAAACQlDgIAAAAAEmJgwAAAACQlDgIAAAAAEmJgwAAAACQlDgIAAAAAEmJgwAAAACQlDgIAAAAAEmJgwAAAACQlDgIAAAAAEmJgwAAAACQlDgIAAAAAEmJgwAAAACQlDgIAAAAAEmJgwAAAACQlDgIAAAAAEmJgwAAAACQlDgIAAAAAEmJgwAAAACQlDgIAAAAAEmJgwAAAACQlDgIAAAAAEmJgwAAAACQlDgIAAAAAEmJgwAAAACQlDgIAAAAAEmJgwAAAACQlDgIAAAAAEmJgwAAAACQlDgIAAAAAEmJgwAAAACQlDgIAAAAAEmJgwAAAACQlDgIAAAAAEmJgwAAAACQlDgIAAAAAEmJgwAAAACQlDgIAAAAAEmJgwAAAACQlDgIAAAAAEmJgwAAAACQlDgIAAAAAEmJgwAAAACQlDgIAAAAAEmJgwAAAACQlDgIAAAAAEmJgwAAAACQlDgIAAAAAEmJgwAAAACQlDgIAAAAAEmJgwAAAACQlDgIAAAAAEmJgwAAAACQlDgIAAAAAEmJgwAAAACQlDgIAAAAAEmJgwAAAACQlDgIAAAAAEmJgwAAAACQlDgIAAAAAEmJgwAAAACQlDgIAAAAAEmJgwAAAACQlDgIAAAAAEmJgwAAAACQlDgIAAAAAEmJgwAAAACQlDgIALC9Wz03LjvrrDjrsrmxup7Vn0dnFeucNSserW+3GmzZkDw6q7j/WTGr3EDr9CasfnRuzJr7mh8VAIBtTBwEANjOrX54cawsJ1YujocHq4O/LgeeHJdeemmcfGB9e0CPxl0zbotFq+qbAABsd8RBAIDt2up4ePHKiLFjY2ysjNvu6nsW3uq5l1Vn8Z112axYXM/rNtiyVqvnzmqemViNy2LW3E0UyA3OHNzo/tX81TH3shmxqJxcNGOTZz0CAPD6EAcBALZnqx+Osg22jzguDhlb3F60uPfS4NVz46bbVkb7iefEpWceUiyr55cGW9aqWu+5OOScS6uzAaeMXRmLbrtr6JcfV/cvNj52Su/9Z5SXL+8ax545JcpdrpadeWwxBwCA7Y04CACwHWteUtweh7xr1ziwWQdjcfcZey3LIg5sxsPaYMv62PXYOPPSU2K3h+fGrMsuixlVRHwuntvM0/xWLrozLpv1aOxyXBkZTy4eEQCANwJxEABgu1VfUtx+SDQb3yHVmXiLuuvgBnYZ0V5PbWzAZdUfO/l6zFi8KkYcf0pMGSgiDmTXY+P4E8ttr4yVi2bE179+Vlw2yyXEAABvFOIgAMD2qr6kOFbeFl+vfp9f9+/wa7m0uMXzq6o/W9KvgZZ1n2F44iknx7EHdl/4u1vsthnXAB947Jlx6aXnxDlTToyx7eVZhLfFBr8aEQCA7ZQ4CACwner+K8VjpzR/H2A5zqnO0mteWrzruw6J9mKNxdWfMH40Frf8XsHBlm1sZax6vvhndfd6m3FZcf3HSS6bWzzmgcfGcQNevwwAwPZIHAQA2C7VlxTH2Dik5Rf4NaNffWnxrsfGKSe2x8rbvh5nXba4XLXXYMta7HrsKVH2xkUzzoqzvn5nsV7zEuEqFg7FgSfHOeW1yOXjnHVWfP2252LsiefEydU+HxjHNTdeLCv/SAkAANubtn322q/rJx2PxJe/MSPef9h+9WwAAAAA4M1q9oNPxAWfneLMQQAAAADIShwEAAAAgKTEQQAAAABIShwEAAAAgKTEQQAAAABIShwEAAAAgKTEQQAAAABIShwEAAAAgKTEQQAAAABIShwEAAAAgKTEQQAAAABIShwEAAAAgKTEQQAAAABIShwEAAAAgKTEQQAAAABIShwEAAAAgKTEQQAAAABIShwEAAAAgKTEQQAAAABIShwEAAAAgKTEQQAAAABIShwEAAAAgKTEQQAAAABIShwEAAAAgKTEQQAAAABIShwEAAAAgKTEQQAAAABIShwEAAAAgKTEQQAAAABIShwEAAAAgKTEQQAAAABIShwEAAAAgKTEQQAAAABIShwEAAAAgKTEQQAAAABIShwEAAAAgKTEQQAAAABIShwEAAAAgKTEQQAAAABIShwEAAAAgKTEQQAAAABIShwEAAAAgKTEQQAAAABIShwEAAAAgKTEQQAAAABIShwEAAAAgKTEQQAAAABIShwEAAAAgKTEQQAAAABIShwEAAAAgKTEQQAAAABIShwEAAAAgKTEQQAAAABIShwEAAAAgKTEQQAAAABIShwEAAAAgKTEQQAAAABIShwEAAAAgKTEQQAAAABIShwEAAAAgKTEQQAAAABIShwEAAAAgKTEQQAAAABIShwEAAAAgKTEQQAAAABIShwEAAAAgKTEQQAAAABIShwEAAAAgKTEQQAAAABIShwEAAAAgKTEQQAAAABIShwEAAAAgKTEQQAAAABIShwEAAAAgKTEQQAAAABIShwEAAAAgKTEQQAAAABIShwEAAAAgKTEQQAAAABIShwEAAAAgKTEQQAAAABIShwEAAAAgKTEQQAAAABIShwEAAAAgKTEQQAAAABIShwEAAAAgKTEQQAAAABIShwEAAAAgKTEQQAAAABIShwEAAAAgKTEQQAAAABIShwEAAAAgKTEQQAAAABIShwEAAAAgKTEQQAAAABIShwEAAAAgKTEQQAAAABIShwEAAAAgKTEQQAAAABIShwEAAAAgKTEQQAAAABIShwEAAAAgKTEQQAAAABIShwEAAAAgKTEQQAAAABIShwEAAAAgKTEQQAAAABIShwEAAAAgKTEQQAAAABIShwEAAAAgKTEQQAAAABIShwEAAAAgKTEQQAAAABIShwEAAAAgKTEQQAAAABIShwEAAAAgKTEQQAAAABIShwEAAAAgKTEQQAAAABIShwEAAAAgKTEQQAAAABIShwEAAAAgKTEQQAAAABIShwEAAAAgKTEQQAAAABIShwEAAAAgKTEQQAAAABIShwEAAAAgKTEQQAAAABIShwEAAAAgKTEQQAAAABIShwEAAAAgKTEQQAAAABIShwEAAAAgKTEQQAAAABIShwEAAAAgKTEQQAAAABIShwEAAAAgKTEQQAAAABIShwEAAAAgKTEQQAAAABIShwEAAAAgKTEQQAAAABIShwEAAAAgKTEQQAAAABIShwEAAAAgKTEQQAAAABIShwEAAAAgKTEQQAAAABIShwEAAAAgKTEQQAAAABIShwEAAAAgKTEQQAAAABIShwEAAAAgKTEQQAAAABIShwEAAAAgKTEQQAAAABIShwEAAAAgKTEQQAAAABIShwEAAAAgKTEQQAAAABIShwEAAAAgKTEQQAAAABIShwEAAAAgKTEQQAAAABIShwEAAAAgKTEQQAAAABIShwEAAAAgKTEQQAAAABIShwEAAAAgKTEQQAAAABIShwEAAAAgKTEQQAAAABIShwEAAAAgKTEQQAAAABIShwEAAAAgKTEQQAAAABIShwEAAAAgKTEQQAAAABIShwEAAAAgKTEQQAAAABIShwEAAAAgKTEQQAAAABIShwEAAAAgKTEQQAAAABIShwEAAAAgKTEQQAAAABIShwEAAAAgKTEQQAAAABIShwEAAAAgKTEQQAAAABIShwEAAAAgKTEQQAAAABIShwEAAAAgKTEQQAAAABIShwEAAAAgKTEQQAAAABIShwEAAAAgKTEQQAAAABIShwEAAAAgKTEQQAAAABIShwEAAAAgKTEQQAAAABIShwEAAAAgKTEQQAAAABIShwEAAAAgKTEQQAAAABIShwEAAAAgKTEQQAAAABIShwEAAAAgKTEQQAAAABIShwEAAAAgKTEQQAAAABIShwEAAAAgKTEQQAAAABIShwEAAAAgKTEQQAAAABIShwEAAAAgKTEQQAAAABIShwEAAAAgKTEQQAAAABIShwEAAAAgKTEQQAAAABIShwEAAAAgKTEQQAAAABIShwEAAAAgKTEQQAAAABIShwEAAAAgKTEQQAAAABIShwEAAAAgKTEQQAAAABIShwEAAAAgKTEQQAAAABIShwEAAAAgKTEQQAAAABIShwEAAAAgKTEQQAAAABIShwEAAAAgKTEQQAAAABIShwEAAAAgKTEQQAAAABIShwEAAAAgKTEQQAAAABIShwEAAAAgKTEQQAAAABIShwEAAAAgKTEQQAAAABIShwEAAAAgKTEQQAAAABIShwEAAAAgKTEQQAAAABIShwEAAAAgKTEQQAAAABIShwEAAAAgKTEQQAAAABIShwEAAAAgKTEQQAAAABIShwEAAAAgKTEQQAAAABIShwEAAAAgKTEQQAAAABIShwEAAAAgKTEQQAAAABIShwEAAAAgKTEQQAAAABIShwEAAAAgKTEQQAAAABIShwEAAAAgKTEQQAAAABIShwEAAAAgKTEQQAAAABIShwEAAAAgKTEQQAAAABIShwEAAAAgKTEQQAAAABIShwEAAAAgKTEQQAAAABIShwEAAAAgKTEQQAAAABIShwEAAAAgKTEQQAAAABIShwEAAAAgKTEQQAAAABIShwEAAAAgKTEQQAAAABIShwEAAAAgKTEQQAAAABIShwEAAAAgKTEQQAAAABIShwEAAAAgKTEQQAAAABIShwEAAAAgKTEQQAAAABIShwEAAAAgKTEQQAAAABIShwEAAAAgKTEQQAAAABIShwEAAAAgKTEQQAAAABIShwEAAAAgKTEQQAAAABIShwEAAAAgKTEQQAAAABIShwEAAAAgKTEQQAAAABIShwEAAAAgKTEQQAAAABIShwEAAAAgKTEQQAAAABIShwEAAAAgKTEQQAAAABIShwEAAAAgKTEQQAAAABIShwEAAAAgKTEQQAAAABIShwEAAAAgKTEQQAAAABIShwEAAAAgKTEQQAAAABIShwEAAAAgKTEQQAAAABIShwEAAAAgKTEQQAAAABIShwEAAAAgKTEQQAAAABIShwEAAAAgKTEQQAAAABIShwEAAAAgKTEQQAAAABIShwEAAAAgKTEQQAAAABIShwEAAAAgKTEQQAAAABIShwEAAAAgKTEQQAAAABIShwEAAAAgKTEQQAAAABIShwEAAAAgKTEQQAAAABIShwEAAAAgKTEQQAAAABIShwEAAAAgKTEQQAAAABIShwEAAAAgKTEQQAAAABIShwEAAAAgKTEQQAAAABIShwEAAAAgKTEQQAAAABIShwEAAAAgKTEQQAAAABIShwEAAAAgKTEQQAAAABIShwEAAAAgKTEQQAAAABIShwEAAAAgKTEQQAAAABIShwEAAAAgKTEQQAAAABIShwEAAAAgKTEQQAAAABIShwEAAAAgKTEQQAAAABIShwEAAAAgKTEQQAAAABIShwEAAAAgKTEQQAAAABIShwEAAAAgKTEQQAAAABIShwEAAAAgKTEQQAAAABIShwEAAAAgKTEQQAAAABIShwEAAAAgKTEQQAAAABIShwEAAAAgKTEQQAAAABIShwEAAAAgKTEQQAAAABIShwEAAAAgKTEQQAAAABIShwEAAAAgKTEQQAAAABIShwEAAAAgKTEQQAAAABIShwEAAAAgKTEQQAAAABIShwEAAAAgKTEQQAAAABIqvHU8ifqSQAAAAAgk8bbd9qtngQAAAAAMnFZMQAAAAAkJQ4CAAAAQFLiIAAAAAAkJQ4CAAAAQFLiIAAAAAAkJQ4CAAAAQFLiIAAAAAAkJQ4CAAAAQFLiIAAAAAAkJQ4CAAAAQFLiIAAAAAAkJQ4CAAAAQFLiIAAAAAAkJQ4CAAAAQFLiIAAAAAAkJQ4CAAAAQFLiIAAAAAAkJQ4CAAAAQFLiIAAAAAAk1YhoqycBAAAAgEwa0iAAAAAA5NS2y067dz2zujO+/I0Z9SwAAAAA4M3ugs9OibZdfnePrmdWLa9nAQAAAAA5RPz/DsAaIUhN8PYAAAAASUVORK5CYII=;" vertex="1" parent="1">
          <mxGeometry x="-8070" y="-4140" width="6067.5" height="4210" as="geometry" />
        </mxCell>
        <mxCell id="my7OuGNImM0k9UZU7hSA-2" value="" style="html=1;shadow=0;dashed=0;align=center;verticalAlign=middle;shape=mxgraph.arrows2.arrow;dy=0.79;dx=388.48;notch=0;rotation=-90;fillColor=#FF0000;strokeColor=#b85450;" vertex="1" parent="1">
          <mxGeometry x="-7957.76" y="-2833.28" width="3994.48" height="573.31" as="geometry" />
        </mxCell>
        <UserObject label="&lt;font color=&quot;#000000&quot;&gt;Text&lt;/font&gt;" link="data:page/id,7D5jlX8IxKll_QPpxnXZ" id="my7OuGNImM0k9UZU7hSA-3">
          <mxCell style="text;html=1;strokeColor=none;fillColor=none;align=center;verticalAlign=middle;whiteSpace=wrap;rounded=0;" vertex="1" parent="1">
            <mxGeometry x="-6050" y="-4690" width="260" height="110" as="geometry" />
          </mxCell>
        </UserObject>
        <mxCell id="-3GfU21WHbobLdxMOXTY-1" value="" style="rounded=0;whiteSpace=wrap;html=1;" vertex="1" parent="1">
          <mxGeometry x="-6720" y="-500" width="1560" height="600" as="geometry" />
        </mxCell>
        <mxCell id="-3GfU21WHbobLdxMOXTY-2" value="&lt;h1 style=&quot;font-size: 90px;&quot;&gt;&lt;font style=&quot;font-size: 90px;&quot;&gt;Cliquez sur l&#39;item &quot;Inviter&quot; pour afficher la vue d&#39;invitation de membre&lt;/font&gt;&lt;/h1&gt;" style="text;html=1;strokeColor=none;fillColor=none;spacing=5;spacingTop=-20;whiteSpace=wrap;overflow=hidden;rounded=0;fontSize=60;align=center;" vertex="1" parent="1">
          <mxGeometry x="-6660" y="-420" width="1425" height="450" as="geometry" />
        </mxCell>
      </root>
    </mxGraphModel>
  </diagram>
  <diagram id="7D5jlX8IxKll_QPpxnXZ" name="VueInvitation">
    <mxGraphModel grid="1" page="1" gridSize="10" guides="1" tooltips="1" connect="1" arrows="1" fold="1" pageScale="1" pageWidth="827" pageHeight="1169" math="0" shadow="0">
      <root>
        <mxCell id="0" />
        <mxCell id="1" parent="0" />
        <mxCell id="-jE6hyBPfZz7bolu9LrG-4" value="" style="shape=image;verticalLabelPosition=bottom;labelBackgroundColor=default;verticalAlign=top;aspect=fixed;imageAspect=0;image=data:image/png,iVBORw0KGgoAAAANSUhEUgAAAmIAAAH/CAYAAAD0RrHmAAAAAXNSR0IArs4c6QAAAARnQU1BAACxjwv8YQUAAAAJcEhZcwAADsMAAA7DAcdvqGQAAD7+SURBVHhe7d0NeFzVfe/7v4Qkyr2o1AYMFMuKbBGchBzygJJGOLZ4Dp004LTNjS+JfOXYpxLHVOfWJxwDznNFrnStgzlPROqSxz11sSLlkWOwbqgf0gMGngwm2K6jNBE9oZBElLEVSVCMeTFc0QB6vWvtvfbMnq09o5mRrKWRvh+exey9195rrz0je35ea8+o4Mc//vGkhJicnLrZvy2s3pOuDgAAIJ8VFBSYpan8dWH7BbeFBrFgkPLWwwKWf1uq4wAAAPLdlBCVYehKe5w/iKULWmGBK7j/dOsAAAD5Kl2g0sKCV9g2j94WD2KpQpR/e3BbujoAAICFKpPQla7O4wSxYHgKC1V6Objdv83jXw/WAQAA5KuwYOXR68Gw5d+mBeu1KUHMWw57TLUc9ggAAJDPdKbxhya/YKjyP6ZaDn185pln4snJH6L0sleC68Ht3qO3rPmXAQAAFgIvQGl62Svp1v3L3rrmrIcFMS9UeUWbmJhwlvWjt64F9/MvAwAALDT+QFVYWBhfT1e00HUviAWDlLfuD2Be8eq9Zc3b5q1r/mUAAIB85gUozR+qvDB23nnnJa0HS/A4Z10HMS8w+YOUfvSHsPHx8Xjx13nFO8a/DgAAkI/8WcYLTR5/mNJFBy9ddBDTxVsP7ueVpDa8IOad0Fv2ihfCxsbG5Itf/KKzDwAAAJI9+uijUlRUlFEY00UrOHLkiMpb4SFMFy+E6fKnf/qnzgkAAACQoHPS3/3d3zk5yR/GwgKYV7RC5/8hgoFMj4wBAAAgnB680nnJX4J5SvMetXgQS7VjcBsAAACmyiSA+Ze1Qm/Bz9vRK16jAAAACOcPYf4wpqV6DB0R80u1HQAAAAn+8OUv3nbN2+YtO0HM26B5O/gLAAAA0tOZyT8qFsxSwUet4Omnn1briZvxvYO9hvSnAEZHR53y1a9+ddpPTfb09MirwwVy6aWXyqRp0zM6NioX/M4FMjY+pnphNioFhYVy5vXXZeydQdlYW2u2AgAA5Aedl7q6uqS4uNgpwa+x8D5BGfwkZdKnJoNJTT8Gt03nN+9MyB9VXyefXV0h1R9f6ZQbPrFKrqtcLs88+n2ZfPc1qfnUVWr7qnj9Z1d/RNav/bRcfvWnTSsAAAD5xctNmRTPlKlJj39bWH0qS5cskSKV9kZGx1QZd8rYxKScPv26PPPjZ+S//bd75fHHn5RJKZCRMbdeF1HrH77/gdsIAABAngmbkvSXMFNGxPw7+9e9bdMZ+XBExs20plvGpbCgUF544Xk5/eabcmb4/5Pd//0Befboj+W884rUvonv3NDTnwAAYP7wT6OlK/ON7tNzzz1n1qbSdeei38Hs5BWPt+xtD/36Cs3bwV8yMaLClA5fY6o4IUsd98EHH8ijj/8P+Xhhgey84AL5/Nio/M3f7pHXXz/tHOOGMT0yliqIPSm3F9yu/p+j2HdkTcEa+U7MrOdiNtoAACAPhWUCf5mPent7pXrN50LDmN6m6/Q+sylsRMwTXPckjYjNBh2mxsbG1RlV44X6RrVi+YefnJB/eCYq/+l/+V9lvQpi/5d6/L2X+uTQY38v56l9VL+d8uG5GhGr/LqcmDwhX6/UKzrUZRKoAvsltQEAAOaz66+/XnpO/MOUMOaFMF2n9zkXwgKXJ1gXv0fMq0h1cLpG/T4cGVEB7DwZ+E2/fLf9v8uOu7bJ44cflepPf1qePHNGjgwOyk9OnZJ/v2aNfOxjH5VX//VfVSL9mfzP//mcTIzzpbEAAGB2BMPYuQ5hYXnK2xas85ZnfURMj4Y9/vgP5eEjvXL29z8nl17zOfncDdXy72++WR577z35rydPyj0qjH20tlbWVn9G/v7v/05eeunX8uIvX3DuLZueGan6zu3xeek1zrBVTL6zpkBu989fPqn2WfMdVeONbunHW2Sf/ETuuEoda3Z+8nbfPLezLWy/wAiZM1WZOC5x3lT9AwAAc80fxs71SFguZj2IvfHGG/LQQ13yr4Mx+YOyYrm85AMpKTrPuU/skquukl9fcIGs2LBBrl+3Tn73wlI5ffpVFdz+Xv711Vfk3XffNa1MRwWkX33JTZRPbJWf3HG/ij+V8vVvbpV9P0wksSd/uE+2fvPrqsZzszw4+YRslRvkgZfVsQ/e7G590Euqqm7fvSpshe+XoMLWVXfINU+Y415+QF68xRfSQvsHAFjsvH+gT1eweMx6EHv7nbPywW+H5Tf/cFDu+Np6+fXPn5KSkhK58vd/3/my1rt37JCW5mY5X23TrruuSl588Z/l1KmT8r4Ka5lRAeluE45u/pIKTC/Kv+gQpJf3/dCEniflhy8+IN5uaemRM+eHX4+CZSD2L+qMW+VLXtuVX5dvbv2J/Opls56qfwCARc39R//0BbPHPx3pn6acL2Y9iF100e9JWflVsvyjVVL/53fJso9c73yP2O/+7u/KDTfcIH/yJ38iK1asMHuLXHzxxbJjx/+ttm8QtdsM3Sx3P/Ci3PudmMS+c6+8+JX1vtGwFPQU4y0iTzg//C/LAzeY7QAAIK8F7wkL3jM2H5yTe8S2/ee7ZPtd35T//cu3ypIlS+Ttt99yph319OQHH7wvb731loyMjDj7j4+PyefW3ijVN6yV377/vrNtJirXf0XkB/fL/T+4Rr6ZyUccX/6V/OSGj8tVejl2WH7wE2drepUflWtkn8RnQVWYu3efb4QMAABYlerG/PkWxmY9iOnpxd++/1v51S9flEcfPeTciH/q1Ck5fvy4PP10VA4ffkKefPJJ+fnPfy5vvvmmXFh6oYyOjqmA9uHsfKFr5Xr5igpJ+675koTnopvlS1t9N+HffLc8IHfIVXpqcsuv5Jr4iFhgvyQ3y4POfWHuXH7BVT+Qr7z8YIrzAQCQ3/z3r4WV+aiqqmpKCPN4YUzvY1tBNBqd9H8BmbesH8fHx+O/9FuPYNXV1U37S7//z//nAfl3V1wkL8diMjg4IKdfG5LLLrtU+vt/I++//76UlJyvSrF85jOfkQ0bviynX39LLr/iI3LxkqWy/8kjcv+O/2haAgAAyA86L7W3tzv3xXu/9FsX/y/99hcdYJ1lc/ysOfvOO3L1x/6dCllflb/4i/8iX/vabVLxkaulpuYPVZCrl//wH7ZK5aqr5Z//+QU5+HC3/Nu/fSDFRcUy/Nt/k1deGTKtAAAALHyzPiL2/QMH5B/73xX3zvtJKTzvPCf16TY9us133jnrPF588SVSpPZ54/XXpKryMrnrv/xnsxcAAEB+yHVEbNaDGAAAwGKTaxCb9alJAAAAZIYgBgAAYAlBDAAAwBKCGAAAgCUEMQAAAEsIYgAAAJYQxAAAACzJ+nvEhoeHzaEAAADQSktL+R4xAACAfEIQAwAAsIQgBgAAYAlBDAAAwBJu1geAFL793UfMEpDf7rrtVrOEcyXXm/UJYgCQgg5iu+7eataA/HT27FlZsmSJ84hzh09NAgCAKRjZnd8IYgAAAJYQxAAAACwhiAEAAFhCEJtvhrqlMRKRSFJplO4hU5/GUE+3tHX3mLVzoKfN6U+bPoV/eS7M1bnn+rpmQU+b/hlpk6y6nOPzmfQzlqqNWXoOz/nP81wY6JJNVS1yzKwCQBBBbJ6qbOiUaDRqyl6pLTMVKfXIweYOiQ6a1YWmeofzXOyoNuuwIPAzluo1mZXXaoH/PAOAQRDLJ2a0rLGtTdoa3ZGyNmeobEi6G5slqveJNkuksVst9Eib2jfS2GhG2Nqkx9m12xyr69oSI21mFMNfGtMNwy1fIZXqvxXLzfo07Sb6rJe7pae7zfTLuwbXUHx7oC7TUZbp+mE2ZDyKlKo9v5SvizFLz43fUHdjvL3jZltcJn3287+WKZ4n1ejUn7FUr0lg+5TX1Ld/+Os99VxOb3J6bVP8OfCkuoYgPbK1qUu6WqqkqsotLd4wV3DUi1EwAFkgiOWhWP8K2bi3UxoqYxLtOKjeasqkdm+rRHRlpFWie2ud/RyxCtnsjKrtkGpRgaG+Q/pr9Ghbp7RWRKWj3rxhmVGMaNS0o96Ya9akGYYrq5W93kidDiKp2jXcPkels6FSYtEOaR5cK03qfK0R7xoU1c59Hf1S0+mOBCbVZUS96ap+RCtapVMd31nTr/qR2bRuqAyuy2/q66JN36eMnhs/53mKuaOme9eqsGK2a1n22eF/LVNI+zOWjtNX1UF9jHdNzaY/KV/vqecqy+W6/Px/DqYdXU6hb49EVx6S3t5e6d29Xg7v65IBUwUAuSKIzVOxjnr3X/7Ov+bNiIBRWbNGvVWVSXmF2ZBOZK0KYK6hE0dFvX2bgFUm1Wv1W11UjvvezYa697vv65HNGUyHujJp1+2zqjWdjqytdtaXr6hU/++XAX2BTiBokvITeuSjUZqdjpi6DLh9r5SGjW7bZWtq1FpMjp7ILYllcl1+Ya9LJn3K6LnxSe5XtTjdMrLt81yJRfdLY1uPLN/o/aNAyeL1nvF1+f4cJMlqGnW9bN1S7i6Wr5TVfacIYgBmjCA2TyXdI6ZHBMz2mYtJR70JeO47n/R773xmpEWd3QkO2UnTbqb0qEekXpqPDsqKzU3S6gsYOSkrFx1tYoOvuOs5mYXr8puVPiVzA5vfLPd5JlTY2tyg+xdTYaxZ6lW/9PSr05usX+95dF0AMEsIYouOCllmKsgre83QV8/BDvVWp0NgU8ajYQmp282UN+rR0LRDauPzRxVSnmsKHRqQfvVQGb+RLRczv64ks9KnZK8M6lfNb5b7PEPVtXtVHzqls7VBIiqT6enXgz25vN7z67oAYDYQxBaR4LSYe8O3uV9pqFv2O4MMEdmc5Ztb2nazFhNnsGioR447/cl8atLrR4d6l3cuyT+d5dyQ7vHaTm82rittn3KU3K/ka5lxn3N4ntKK30iv+lZdKxtrgsNemb3eaa9rJn3O9Gb9dMorZJWclH4zTznwbFT63EUAmBZBbJ5KukcsozeKatmop4D0p8wi+lNuIfQ9OXr+x7Rd36FiV6t7k7YbELSoNHvnDdybllKadrNRVtsk7iWoc9fvV43ot1fzRp0J3Y/OBon0N0u97sfRCmnoNP3QU2SqPed5bTyu8+b0ZuO60vUpV6rNJn1jf9i1zLTPaZ+nDH7Ggqp3SGdSf/ol0tDp3JOV/vVOPldPuutK2+e5sE7qt4ns2eB+mvIe1YH1pgYAplMQjUYnJyYmZHJy0inesn4cHx+XsbExGR0dlZGREamrq5Ph4WFzKAAsbPqXJe+6e6tZA/LTPffvc36Oz549a7bgXCgtLZX29nYpKSmR4uJiKSoqckphYWFoKSgocJfN8QAAAJhjBDEAAABLmJoEgBT01ORdt93qPAL5jKnJcy/XqUmCGACksWTJErME5DeC2LlFEAMAALCEm/UBAADyDEEMAADAEoIYAACAJQQxAAAASwhiAAAAlhDEAAAALCGIAQAAWEIQAwAAsIQgBgAAYAlBDAAAwBKCGAAAgCUEMQAAAEsIYgAAAJYQxAAAACwhiAEAAFhCEAMAALCEIAYAAGAJQQwAAMASghgAAIAlBDEAAABLCGIAAACWEMQAAAAsIYgBAABYQhADAACwhCAGAABgCUEMAADAEoIYAACAJQQxAAAASwhiAAAAlhDEAAAALCGIAQAAWEIQAwAAsIQgBgAAYAlBDAAAwBKCGAAAgCUEMQAAAEsIYgAAAJYQxAAAACwhiAEAAFhCEAMAALCEIAYAAGAJQQwAAMASghgAAIAlBDEAAABLCGIAAACWEMQAAAAsIYgBAABYQhADAACwhCAGAABgCUEMAADAEoIYAACAJQQxAAAASwhiAAAAlhDEAAAALCGIAQAAWEIQAwAAsIQgBgAAYAlBDAAAwBKCGAAAgCUEMQAAAEsIYgAAAJYQxAAAACwhiAEAAFhCEAMAALCEIAYAAGAJQQwAAMASghgAAIAlBDEAAABLCGIAAACWEMQAAAAsIYgBAABYUhCNRicnJiZkcnLSKd6yfhwfH5exsTEZHR2VkZERqaurk+HhYXMoAJu+/d1HzBIWs7tuu9UsAbCptLRU2tvbpaSkRIqLi6WoqMgphYWFoaWgoMB9JIgB+UkHsXWRL5o15Itj0cflz/9sk1mbmb/93gGCGDBPEMSARcYLYp8pv8BswXz3s4H3nSC27T9+zWyZmT3t3yeIAfNErkGMe8QAYI4VnVc4KwVA/uNPMgDMsWIVomajAMh//EkGgDkWFqpyKQDyH3+SAWCOFRcVzEoBkP8IYgAwx8JGt3IpAPIff5KBhWSoWxojEYk0dsuQ2RSmp03tE2mTHnc1Sbq6GetpU23r9iPS2J3o4VB3Y3x722ye2JzPf675YHR8YlYKgPxHEAMWkKETRyWmF2JH5cT8yh5TxI6eiIfFVwadXi8ao2OTs1IA5D+CGLBgDMmJoyrQ6JElFcc6DiYPLcVHnRrb5LjZ5klX5zfU3eaOuDmlUdqSRrUCdWlGtiorK1USG5RXnLUeOR412/yGuqWt0bSn+hU/lTfK1dYWr29s65ae+PmT++UYPBjvW9LoWKpzqD61OdsazXFt0qPqsrnGdIIjW+vW/EFGJXgcgPxHEAMWiqETonNY5YqNsjai1qPHE9OLKnDc1xGTyoZOie5dq+rMdi1dnZ+zX7/UdEYlGo1KayQm0Y6D7jmcOnVgpDVR15xmerOiQirViY7rHXqOq6VKqampcOs01V5jfYf016g+RTultSIqHfXJ7cX6V8jGvVHpbKiUWLRDmgfXSlOwX4beV9c5+3bUuwEqg3NIrEI2q+Oi0R1SLVleYxrBQPXUj0+YmtT0PsHjAOQ/ghiwQLjTkirQrCmTajeJuUEnUCcqUjjVRrq6JGW1sjfaJOUn9ChSozQ7ga1fBnwDTLHofmlUKWf5Ri+8pLBirdRU6qzYI0MD/WpDhZSXu1Vacp+mXo9WWbNG1ajacjfARdZWO+vLV+iRteR+xfddU6NaVbWqMpNzqEanXEPG15jGmApRwfL406nHInVd2DEA8h9BDFgQzLRkZY24eWqtOLEiKVUkuGElXMo6PYIUqZfmo4OyYnOTtPoDmwppmxv0cTEVVJqlvt6dLvRloYDl4uSn/uNy0JlOnRp4dFsdqh1nGtBNfU6AykVFuX5SlLJyFflUy4PupGhW58j6GlMLu99Ll0efOmb2SNDbwvbVBUD+I4gBC4GZlpRYh9Q79y81ixMr/NOTPulujk9V540gNTTtkNpqE2z0SJZZrK7d60zxdbY2SETlFT1dGLhNLYkzAhWLSlTnxxXLzVY/dS4zDeqVvbXeebMTD1dDA6LH3xLny+4c2V5jKsEpRn/5weFnzV7iLIft4xUA+Y8gBiwAbkjSty8lAoW+H8qbanOn5GJy1PkopXtzvCdd3VQxcQaThrz9zBRg/GsiVHvVtbKxxj9clsLyFeq8mjc9mJDcJ3U658MEjb6b6bPjfULTPx2Z9TlyucYUxicm05aDj/3YKWF1/gIg/xHEgLxnpiUlImt983ve/VDO9GRZrTSZG9Ujjcf1rgnp6nzKaptEZ7toc0Qi9fvVfrp1E8yqd0innqvUbaiwUt/RL5GGTtmR7gaqsjXOfWL+UbU4fT9aUns6ZO6VHAfEpLJiUO5z2lExrKHJbSfbc+RyjSmE3e+VSwGQ/wrUv5wnJyYmZHJy0inesn4cHx+XsbExGR0dlZGREamrq5Ph4WFzKACbvv3dR2Rd5IvymfILzBbMdz8beF+ORR+XjV/9itkyMwf/3x/IXbfdatYA2FRaWirt7e1SUlIixcXFUlRU5JTCwsLQUlBQ4C6b4wEAc2RsYnJWCoD8RxADgDkWdr9XLgVA/iOIAcAcGx/Xt37MvADIfwQxAJhjYdOMuRQA+Y8gBgBzLGyaMZcCIP/xqUkgT3mfmkR+0Z+ajNzyJ2ZtZqJP/A8+NQnME7l+apIgBuQpHcQAghgwPxDEgEVm6dKlZgmL2dtvv22WANhEEAMWGR3Evv9Ur1nDYvS1L1QRxIB5gi90BQAAyDMEMQAAAEsIYgAAAJYQxAAAACwhiAELxRtPyUP33C4P/PVTctZsCnPyEbXPPd+Tk2bdL13djP36e6pt3f7t8tDR02ajyNmj98a3P/Vrs3E2mPP5zwUA8w1BDFggzv6qV97QC6/1SsxZmL/eeOEX8bD49pkhswQAiw9BDFgQTkvsBRVoPvVZWS1DcuLZ5812V3zU6a+/Jy+bbZ50dX5nj37PHXFzyr3yVNKoVqAuzcjWpVeUqbD4mrhfuvC8vPwLs83vjafkqb827al+/dwLlt4o1yPfi9c/9MhTcjJ+/uR+Oc48Ge9b0uhYqnOoPj3lbLvXHPc9OanqsrlGAMgUQQxYCN74hfzLayrQLLtZrvqUWv/FPyWmF1XgeOJHQ3Lp53fKHX9xnaoz27V0dX7Ofq/KR+94UO7Y9aD88aeGpO9HT7rncOp+qkLgf0rUHUgzvXnZlXKp/FRe1kHm1/8kfVImH/3klW6dptp76IFH5a1Pqj7t2il/fNlP5cQDye298foV8gd/8aBs+XyZuvRH5bEz18ktwX4Zel9d5+z7oxY3QGVwDnntSvmsOu6OXX8mqyTLawSADBHEgAXAnZZUgebjl8uqaz6rtpigE6gTudYNaka6uiSXfkHqdt0mS3+lR5HulcecwPaqvO2bAn3jF4/JQ488L0tv9MJLCsuuk49eIdL34vNy9syrasOVsnSZW6Ul92nq9WiXfvJTskQ9LlnmBrjV11zrrC9dpkfWkvsV3/fjVSoAirx15nRG55BPXTflGjK+RgDIEEEMyHtmWvKKKqnUSeNj18lq9aCDThg3rIRLWadHkO5pkcdeeE0uvuk2+WN/YFMh7bOf18cNqaDyN9L1gDtdmPoDA5fJ0svUw+v/JP/oTKdODTy6rROqHWca8MBPnS06QOXi4mU6bCmXXiEXq4c3zrzurmdzjqyvEQAyQxAD8p2ZlpTXHpUu5/6lv5E+vd0/PemT7ub4VHXeCNKar/6ZfPpjJtjokSwd/JRVNd90pvi2bPrfZPUVukuPyj/6R5cCnBGo134qfc50qk5lQepcZhrUK3U13nmzEw9Xb7wmb6mHxPmyO0e21wgAmSCIAXnODUkiqzclAoW+H8qbanOn5IbkX36lA4l7c7wnXd1UQ/LWm+rhDW8/MwUY/5oI1d7HviB/8Ek9zTeNS65wpgl1GHKnBxOS+6Suz/kwwb2+m+mz431C0z8dmfU5crlGAMgAQQzIa2ZaUj4rV33M3aJ590M505OXfkFuMTeqP/DX/yQSmFZMWeezpOY2WaPv6zpwuzzwwGNqP3eazglmH/sz2bJJBRPdhgorXT96VVZ/fqd8wdefKS79lHOfmH9ULU7fj5bUng6Z35RPB/fL0KWXvSZPOO3oDyXc5raT7TlyuUYAyEBBNBqdnJiYkMnJSad4y/pxfHxcxsbGZHR0VEZGRqSurk6Gh4fNoQBsWrp0qXz/qV6zhsXoa1+okrffdr8IBIBdpaWl0t7eLiUlJVJcXCxFRUVOKSwsDC0FBQXusjkeAAAAc4wgBgAAYAlBDAAAwBLuEQPylL5HjPuDFjd+BoD5g3vEAAAA8gxBDAAAwBKCGAAAgCUEMQAAAEsIYsBCMdQtjZGIRBq7JfVvkxTpaVP7RNqkx11Nkq5udgypczS6/XRKo7R19yT629PmbG/sTncFALBwEMSABWLoxFGJ6YXYUTkxT3NMT1u9NEdFajqjEo2q0lkj/R3NUt927qIfAMxnBDFgQRiSE0dVDNOjTCqOdRxMDjZD3Y3uCFRjmxw32zzp6vyGutsCI1mJtDelLixXDXXLfhXCKhuapFb/qkqtrFaaGipFovslaRBs8GC8Pf/oWNrzqPbbGk2dupbEYT3S5mzzRuJapK1Br3sjh6beayzjdtqkR9VldO0AkAJBDFgIhk6IzmGVKzbK2ohajx5PTC+qYHFfR0wFoE6J7l2r6sx2LV2dn7Nff3wkqzUSk2jHQfccTp06MNKaqGueOr3pjthVSs0aL4W5ytbUqK0xOeobxov1r5Am1VanCmmxjno33KQ7j6prrO+Q/hp1HdFOaa2ISkd9oA+xCtmsR+GiO2Xt1Xp9UF7R24cGpF89RNZWZ9nODqmWzK4dAFIhiAELgD/kVLtJTI6bNJAcgKrdoGakq0tSVit7o01SfkKPFjU604ui4stAIjtJLLpfGlViWr7RCym5q6xZI7pHbkhTZ/KdKOw8ydcx9TlwRNbG++Svd4+NiJPDsmzHM5vXDmBxIYgBec9MS1bWiJun1qpYoeJDUnpIWL5CR5twKev0SFGkXpqPDsqKzU3S6g9sKqRt1tOLKsLEos1SXx9RoST9BwamU1GuL0QpK5cK9RAbfCWD88SkQ21zpgjdpJgU4JL4nqNXBvWUrj9cZdHOObh2AIsLQQzId2ZaUmIdUu/cp9TszjD6pyd9nOCRQqo6b6SooWmH1FabkKQikpeXqmv3ip7K62xtkIjKJbFohwRuUwudgtSSR6Fc8eBjpg0rVyx3VtOfR/XP+xCAKXvjN6MFmdG/6H7Zr07gTEvGZdNOZtcOAKkQxIA85wYZfZtSIjjoe6u8KbXkANQjx91BHke6uqliogemZMjbz0xNxr9yQrVXXSsba/zDZT569EhVxTruk259l7sy1OPeoyaRzYkb+JXY0RPOqFJSSEtznmDIcz+A0Jj8AYAAd9oxJrGYOy2pZd1OptcOACkQxIC8ZqYlzT1OHjdQmOlJFYD0JxP1Te+RxuN614R0dT5ltU2is120OSKR+v1qP926CWbVO6RTz1XqNlQoqe/ol0hDp+wIuVGqekentDaIHG02+zYflYqGVukM7FxZMSj3OW2pGOZ9yjLdedR17E2qU11s3ZsU7qYw05NJ05LZtpPFtQNAmAL1r+fJiYkJmZycdIq3rB/Hx8dlbGxMRkdHZWRkROrq6mR4eNgcCsCmpUuXyttvv23WsBjxMwDMH6WlpdLe3i4lJSVSXFwsRUVFTiksLAwtBQUF7rI5HgAAAHOMIAYAAGAJQQwAAMASghgAAIAlBDEAAABLCGIAAACWEMQAAAAsIYgBAABYQhADFgrnF3NHJNKY/pdO97Tp30fZFvp7KNPVzZpZ6Gda5tcOtZ3TiwCA2UEQAxYI73dOSuyoBH6v9rxyzvtZvcP5fZv8miEA+YAgBiwI5ndO6pEmFXM6DiYPB7m/vFqPQrXJcbPNk67Ob6i7zR3JckqjtPl+E/aUupSjUTn20/vl2m1t0tbonqexrVt64uf19cc/ImZG3xLHJfcbAGwjiAELwdAJ0fmmcsVGWat/k3X0eGJKT4WR+5xfnt0p0b1rVZ3ZrqWr83P265eazqgz2tQaiUm046B7DqdOHRhpTdQ1p5hSzLWfRqx/hWzcG5VO/YvKox3SPLhWmoL9CeEe1ykNlen3A4C5RhADFgB3uq9SataUSbWbcOS4SRv+OpFqNwAZ6eqSlNXK3miTlJ/olrbGRml2QlK/DPgGl2LR/dLY1iPLN+qwtkO1NlWu/fRU1qwRXVtWXuGsR9ZWO+vLV1Sq/yf3x889rkzMYQAwbxDEgLxnpvsqa8TNMGvFiThewglwQ0u4lHVDeoqvXpqPDsqKzU3S6g9JKqRtbtDHxVQYa5b6enfacGommr1+AsBCQRAD8p2Z7pNYh9Q790s1u7N6/mk/n1cG9c7hUtV5o1UNTTuktlqnKK1Cys1ide1eiUY7pbO1QSIqP+lpw8DtX7PaTwBYKAhiQJ5zQ5K+Rcu9f0sXfQ+VN+1XtqZGRaiYHHU+otgjx333XqWrmyomg6+ohyFvPzMV6N1I363aq66VjTUhc4rKTPoJAAsVQQzIa2a6TyKy1ndTlhtqzLRfWa006ZvbO+ol0nhc75qQrs6nrLZJdGaKNkckUr9f7adbN8Gseod06rlK3YYKZPUd/RJp6Ax8fcQM+wkAC1SB+lfp5MTEhExOTjrFW9aP4+PjMjY2JqOjozIyMiJ1dXUyPDxsDgVg09KlS+Xtt982a1iM+BkA5o/S0lJpb2+XkpISKS4ulqKiIqcUFhaGloKCAnfZHA8AAIA5RhADAACwhCAGAABgCfeIAXlK3x8EcI8YMD/keo8YQQwAAGCGuFkfAAAgzxDEAAAALCGIAQAAWEIQAwAAsIQgBgAAYAlBDAAAwBKCGAAAgCUEMQAAAEsIYgAAAJYQxAAAACzhVxwBWLS+/d1HzBKQ3+667VazBFv4XZMAkCUdxHbdvdWsAfnp7NmzsmTJEucR9vC7JgEAWIQY2c1vBDEAAABLCGIAAACWEMQAAAAsIYjlk6FuaYxEJJJUGqV7yNSnMdTTLW3dPWbtHOhpc/rTdg5PkakZXessXUdSHyw+Nz1t+mekTebBy5KeeY4aM/lhnk8GumRTVYscM6sAkC2CWB6qbOiUaDRqyl6pLTMVKfXIweYOiQ6a1QVthtdavcN5XndUm/WcBPowK20CABYigthCYUbLGtvapK3RHSlrc0YXhqS7sVmiep9os0Qau9VCj7SpfSONjWaErU16nF27zbG6ri0x0mZGK/xl2pGLVG0pQ91tvpE91c8UwzVT9vMaCYyeeKM+Ydfq7JGyLyHPw2PJo1fp+hrev5DnOzgilqo/KV9DV+bPW2O87eNmmyPF8zalGW+/eD/0crf0xM+f3K+U15NtO9rgwfg1Jn7Gsvx59Qs+96noka1NXdLVUiVVVW5p8Ya5gqNejIIBmEUEsQUm1r9CNu7tlIbKmEQ7Dqq3sDKp3dsqEV0ZaZXo3lpnP0esQjY7o2o7pFpUCKjvkP4aPdrWKa0VUemoN2/SZkQnGjXtSKXUrEkzDKcDRaq2VN19HSqm6L6oNlsjqp/NIWHA2a9fajrdkT9nP+d6Ugu71jK1tU31JVrRKp2qnc6aftWXwHSu/3m4xGzT0vU1Zf/SPN+O6fsz9TVUsnreYu6o6d61Kgya7Tlw+6H62FApsWiHNA+ulaaka1XU+VK+1kZG7Rh6X13n7NtRnxygMv15zVXfHomuPCS9vb3Su3u9HN7XJQOmCgDOFYJYHtJvUM4ogDMSYEZ9jMqaNSoKlEl5hdmQTmStekNzDZ04Kurt2wSsMqleq6NEVI773tmGuve77+uRzWmnQzNpKxbdL43qXXb5Ru+NNaCsVvZGm6T8hB71aJRm58T9MhA26pGG2+dKadhYrXqiml1To9ZicvSEryHf8xAmtK859i+T/qR7Dad73pKf+2pxnvocuf1QfTQdiax1+7x8RaX6v3utmbzWmbTjie/rPC+q1l+Z5c+rI6tp4fWydUu5u1i+Ulb3nSKIATjnCGJ5KOkeMWfUZ7bEpKPeBDw3WSTeCM1Iizq7EyKml6ItFWA2N+i32JgKFc1Sr/bR01W+t1uXHmmJ1Evz0UFZsblJWmcQKJKUlYuOA7HBV9z1dNL1dbb6l2l/Mn3eAtywc66l+bnJUkW5+WnO6HmZvfMCgC0EMfiokGWm2ryy1wx99RzsUG97OgQ2ZfDhAC11W9W1e9V6p3S2NkhE5QQ9XXUwMJLhjXg0NO2Q2mrvhBXivU/nbGhA+tVD5Yrl7vo0UvV11vqXRX8yed6CXhnUr9q5lvq1zlYi+GfyvMzeeQHAFoIYHMEpMveGb3Pv0lC37HcGHCKyOYM3urRtxW8YV/tV18rGmnRDSTFxBkSGeuS4c34zjbV8hWrf49WF8/rSoRKLcylJU1rTmLavKfqXRs79yfB5S37uA89NFs9bptK+1jmIHT2R0fOS8XkzvVk/nfIKWSUnVUh0VweejUqfuwgAM0YQy0NJ94hl9CZTLRv1tJb+FF9Ef7owhL7nSc+vmbbrO1TsanW/GsN9U9Si0uydN3BvWpI0bel7djqT6vol0tA55R6estomcbuszlW/XzWgI4QJPnqaTq07z0PjcZ0PfZKvtUf3pbNBIv3NUq/Pd7RCGjoz+coPJU1f0/Yv3fOda38yfN50+03q3KHPTdrnLUf6elK91jmorBiU+5x2VAxLN/o6y+dNb53UbxPZs8H9NOU96olbb2oAYKYKotHo5MTEhExOTjrFW9aP4+PjMjY2JqOjozIyMiJ1dXUyPDxsDgWA/KZ/WfKuu7eaNSA/3XP/Pufn+OzZs2YLbCgtLZX29nYpKSmR4uJiKSoqckphYWFoKSgocJfN8QAAAJhjBDEAAABLmJoEsGjpqcm7brvVeQTyGVOT9uU6NUkQA7CoLVmyxCwB+Y0gZhdBDAAAwBJu1gcAAMgzBDEAAABLCGIAAACWEMQAAAAsIYgBAABYQhADAACwhCAGAABgCUEMAADAEoIYAACAJQQxAAAASwhiAAAAlhDEAAAALCGIAQAAWEIQAwAAsIQgBgAAYAlBDAAAwBKCGAAAgCUEMQAAAEsIYgAAAJYQxAAAACwhiAEAAFhCEAMAALCEIAYAAGAJQQwAAMASghgAAIAlBDEAAABLCGIAAACWEMQAAAAsIYgBAABYQhADAACwhCAGAABgCUEMAADAEoIYAACAJQQxAAAASwhiAAAAlhDEAAAALCGIAQAAWEIQAwAAsIQgBgAAYAlBDAAAwBKCGAAAgCUEMQAAAEsIYgAAAJYQxAAAACwhiAEAAFhCEAMAALCEIAYAAGAJQQwAAMASghgAAIAlBDEAAABLCGIAAACWEMQAAAAsIYgBAABYQhADAACwhCAGAABgCUEMAADAEoIYAACAJQQxAAAASwhiAAAAlhDEAAAALCGIAQAAWEIQAwAAsIQgBgAAYAlBDAAAwBKCGAAAgCUEMQAAAEsKotHo5MTEhExOTjrFW9aP4+PjMjY2JqOjozIyMiJ1dXXS8led5lAAAADcddutUlpaKu3t7VJSUiLFxcVSVFTklMLCwtBSUFDgPuYSxHbdvdWcGgAAYPE6e/asLFmyxMlLuQQxpiYBAABy9O3vPmKWckMQAwAAsIQgBgAAYAlBDAAAwBKCGAAAgCUEMQAAAEsIYgAAAJYQxAAAACwhiAEAAFhCEAMAALCEIAYAAGAJQQwAAMASghgAAIAlBDEAAABLCGIAAACWEMQAAAAsIYgBAABYQhADAACwhCAGAABgCUEMAADAEoIYAACAJQQxAAAASwhiAAAAlhDEAAAALCGIAQAAWEIQAwAAsIQgBgAAYAlBDAAAwBKCGAAAgCUEMQAAAEsIYgAAAJYQxAAAACwhiAEAAFhCEAMAALCEIAYAAGAJQQwAAMCSgmg0OjkxMSGTk5NO8Zb14/j4uIyNjcno6KiMjIxIXV2dtPxVp+y6e6s5HMBCdM/9+8wSwvB3IACP/vtS/52g81J7e7uUlJRIcXGxFBUVOaWwsDC0FBQUuI8EMQBB+i+W++6+3azBr+n+B/k7EEDcTIMYU5MAAACWEMQAAAAsyT2IDXTJpqoWOWZWk/jr0u2XswHp2rRJugZ8yz/J8TznvK+zYYbXqOV8nYnn+lhLlbSkPGgW+phEt+edL9GHqfz7AQCQX/JzRGzgWYlKRG4s9y1f6VYtSN413rBFDvTulHVmc1bKczzW/1ync05fh3LZcuCAbJmuDwAA5JkZB7EjLVVSVeUWd1TimLRs2CN9cli2V/25/Hl8WY+SqDr12NW1yRwTGOU41hJvq8o/qhIcwRk4JX2rKtTbs7f8W+n0n0fvv6lFWjb529HnDmk7rUyP8e/nv6ZUx5sRnq7E9W5yh5yS1z3e9QZHtTZ1SVfw+TfbE0cnj1Q5fUp6TbQ01+l/rrUjiT4mjUIF9pv6c+Hxnct5jVI8X5s65ZTZGr+GafcDACC/zDCIHZaTKw9Jb2+v9O5eL4f36QCwTnYe2iarZb3s7v1b+dv4sjcac1j2RCNyyDlmlezZ4AsD20Xtp7arcmjbSdnuvYMHRnOOHTks629y19zlRt85zX59h0W26rbc9WOq8ZPb3L4mtZ2G/5je3SLbkwKOR4cEp+NmP3VN97j7pT++T/acusmtU31XT4RUHfGvd5rnJfl6k/TtkWjw+S+/USISlWe9EwVGqo4lvT7TPzfBcx8+udJ97VQbJ7cnQlvyfmE/F66k52Sr2rPPVCjp6vwy3Q8AgPluhkFsvWz15ovKV8rqvlMhQWWq9Vu3uCMn6+pl2+qT0h8/KLFcvuWA9O4MCR/qDP0nV8tKdzjMtxy0XhL54ZgcObxaImZ+rXzLVll/+Eg8RITTx/iub91Nsr7PF3A8Ouj0+c61bqf0HtDXN93xq2VbvTlIh6fV/vUKWRV/LtJf49Tnv1xujIhEzYkGno2KuvDEiNYU6Z6bqeeOv3YqHG9df1iOODsG90v1cxF8TvTr7y6mr/PLdD8AAOY/C/eI+d+wy6ViVZ+cct6l9UhNRKIbzJRTcNrS479nKdP7lxx9sife9nY9ZuMLgCEG+tUefuWyMtUb/uqVU4NONsenk9U1usrdJKbCz4C4OWy6g1M8N1POnSIQZtpH/ZyEPVdayPNVscos+mW6HwAAecDyzfqBkRRnCrLXTGklpviSTLk/zHf/Ulp6Ks607ZRpbv52RqX8BuRUqimwsJHAbI5PJ6trNLzpyWOZhrgUz82Uc3uhWdOvnbeYYR/1c5Jq1DTk+Yq375fpfgAA5AELQaxP9nSaScFjnbLHCwr6RvXQe7CSTb0/LD7/mMY6uWn9YdnnDbFldK7gMUfk8OqQUONMK3pTdEr8hvoMj59G5tfo505P7tm+Z5ppSS31cxN27sPehepRMDMlm/vroF7/eDhNV+eX6X4AAMx/5yaImXDifCrPv+xU6tvE97nTYNtPyrZd3v1iO2X3qj2ywZke03Uiu517rRQTbtzRD28ELTiaFjxPsnU7d8sqfUN88LxpJB8ztT/uefRXK+g78U2/N0Qlcsi9CT7l8RnaUh64xizo6cnV6r/QacnAcxX+3ISfe70cCVxndn1MOteRlUn3d63beUgiUVO3T50rxVRupvsBADDfzfHvmtRfO7BPVh7iO6Gg6EC74ZRs9X0iNhw/N3ON3zWZGr9rEoAfv2sSecT9FnxnJCtpVC21Aec757bnNK0LAMB8N8dBbJ3snO4meSxgeho35EMBaThfY6L3zXJaFwCAfMCIGAAAgCUEMQAAAEsIYgDm2IVyScs1cn3V9W7ZdI2UHbvQ1AHA4kIQAzCHLpSyTVdL+cl3ZeDQc/Jc70syEBFZtv0jUma+Gg4AFhOCGIC5c+xyWdYn8u7WIXnT+fTFe/LmlhdVIHtRhrxPYwyUSeUmb7SsMhHQjlU6265pqZRrzGjaNV16JE2HO71vmVrSLpHKeB0AzG8EMQBz5sL+31H//1A+TPkRWBWiNiyTi1YNyEu9z8lLkd+RZRuuSRotO//kh/IbXbftQzl/z9VSeew9ORv5UKTvfNGty7Hfk4vUwwcV7+k1AJjXCGIA5szvnDpf/f8DeT9FELuw63IVoj6UM/Vvio5R7934rlo7Xy56NjG69WHkrK9Otdl/oVm+SH7vmBf23pV3MvmtWwBgGUEMwJz5YKUTneSCTO8HK39fxTaR8085Y12O+EiXv678rLy7WuSiI5e4YW/9O/KmuxcAzGsEMQBz5r0KJzrJ+ZkGsYELnOnGD1fq41x6BMyRVGemJw9fLpefTN4fAOYzghiAubPutJzRI1f7yuQSJ4xdKJd0uV9lUXksMRW5rPMS58b7C5+9SK19KO/emLjf6/zoktC6eMjrS94fAOYzghiAOfSeDB14Sc6sukjKN+hPPl4t5VGRM7tfkpi+p6t8SF48dEbePVkuV6twdnX0AzlzyPeJSuXDVefL5ZtU3R6Rd7f9JlG37h15Vz+uflfOpvwwAADMLwQxAHNMhbGd+isr9PeIqXJABa11vhEsFcZiB7y6WFIIc6w8bepflNiWkJGvVe87N/MDQD4giAHIexc605vlctHqd2VgJ7fpA8gfBDEA+WFdzBklezFkFOw950th3RE0YhiAfEIQAwAAsIQgBgAAYAlBDAAAwBKCGAAAgCUEMQAAAEsIYgAAAJYQxAAAACwhiAEAAFhCEAMAALCEIAYAAGAJQQwAAMASghgAAIAlBDEAAABLCGIAAACWFESj0cmJiQmZnJx0iresH8fHx2VsbExGR0dlZGRE6urqpOWvOmXX3VvN4QAWonvu32eWEIa/AwF49N+X+u8EnZfa29ulpKREiouLpaioyCmFhYWhpaCgwH0kiAEAAORmpkGMqUkAAABLCGIAAACWEMQAAAAsIYgBAABYQhADAACwhCAGAABgSU5fX3HXbbfKt7/7iGkCAABg8ZrT7xEbHh6WJUuWmFMDAABgToMYAAAAEkpLS/lCVwAAgHxCEAMAALCEIAYAAGAJQQwAAMASbtYHssDXtiw8+ut4gnidcxP2XAKLRa436xPEgCzoN2j9fTFYGO65f1/KIPb5z1xt1pCJH/3sJYIYFjU+NQkAAJBnCGIAAACWEMQAAAAsIYgBAABYQhADAACwhCAGAABgCUEMAADAEoIYYMuxFtlUVSVVTtkkLcfM9llyrEW32yJTmlXn1efM+XyB4weOdUlLV2aNJe07037kizNHZPedd8qdu4/IGbPpnPnlw3KnOtfDvzTrAOY9ghhgxTFp2X5YZNsh6e09JNtW98nh7SGhaT5at1P1uVd2rtMrx6Rz+x45fMqpmUZg36R2Fq4zLzwvr+qFV5+XF855EgOQbwhigA0D/XJSPfRFn5UBKZctB3pVKNkp8Uwy0CUtm8xo2aYW6RpIbNejaJtaWkz9JmmJV+rqTfFjjphtaaVsb0C69PqmLrWkqeCo29XDV2Yky91nu6g4KSpFxvcd6AqM9MXbS953yohYjtc8v52RF55XMez66+V6FceeeNo3VGVGynY//LA8vPtOufPO3fLwEZPU0tWZUa/dZv2XD+v6hyV0EEy14x6vR+QeFq8JdZQ87Gzb7Y7W6eMJiYAVBDHApr49skGFjmP+XKGDx4Y9cjLijpbtXnVY9mxIHi3rO7lS6g+YkbQ9nW6dOu6ePX2yWo+yHbhJBR5n14xMba9cKlbpilNuEDPBcf1NieGrlmM6QO6W9Xpl/W51zi1S7vThpEQO6WDZK7vXJ9oL7ptMBT11zYdX7ZZD6rhDkZPqmjclwpgSes3z3ZkXROewKy/7Q7n2erX+3PNTAtOrpy+TP9z+DbnlylfluSeeTqpPVzctHea+9YScvvYb8pd/+Q2pv/w5eeJbgcD26uXyR3/5l6r+/5BPLDPbAMwpghhgQ/kW2bVttbvcd1i2q9DhjfIMPBsVFackcmO5WiuXdTfp+HJYjviSx+rIjarGhCUj+bh14hyWobD2/Od1214vvhwWTl3Xgd5dUvGsHt3aJHr2VVSE659mAGuga58602rZVr9O9UI1c2NErfVJ9NnEgWF9nO/cackr5dpPLpNPuElMng+kqSuv/aQsU/9dfrnZ4JOubjr+c4tqI/T8118rnzCLAOwgiAGWlG85IId2b5P1Th7Tozz3+EaA+mTPBjNN56YZOTldmgkoX2mCXq7W3eSMYB1WSWzgVJ8eDktMnabiTCNukO3RU7Jy6y7ZnUUYTFJeIe6AXHbXPL+YackrrxUnC33iWnEHxbIa15qhV+WJb5mpyc7nnC2nTzMHCcwnBDHAovJ1W2TngUMqsOjQ1CeJ3LFatpnpPa8c2KLHijLnhKcZMaNqh/fJvpPJ05KpeKNy23btlC3rvP6ukorsuq4acqdCV6/M9sB5xExLyqtPyLec+7A6xYlCIdOT586Vcss39NRjomy/iTlIYD4hiAEWeDfVtzg3h5VL+Uq9dbXo3BGclnP3Tb5fKkzyccfkSBb3iKXiTk/2SV9fBtOScSZQDnh9mH5q0uv7ns5j7g3/SdOs+cn7tOT19YkQ9I1brlRbpk5PZuXSy1S88vxSnncHuqZY9slr1X6vyvPmo5pnjuxWYXC374Z9APMBQQywoHyLnrZbLYe3b3AC2YY9+h72XeIMeun7rPSc3h5/3QG3Lh1z31mfPm7TEXWQ2T4TZnoy9bTkOqnX97rpT0JWtTjX5a5WSdWGfeo4/0hf8r5J9DUf2ibrT26XDfqao6tk26EMrnneMtOScr1c67sJyw1HM5yeXHaT/NH1KmI98S25c/fz+hTh1H7b61Wl3u/OO+VbT+hQuF0YEAPml4JoNDo5MTEhk5OTTvGW9eP4+LiMjY3J6OiojIyMSF1dnQwPD5tDgcXn2999RHbdvdWsId/dc/8+ueu2W81agn6dP/+Zq80aMvGjn70U+lwCi0Vpaam0t7dLSUmJFBcXS1FRkVMKCwtDS0FBgbtsjgcAAMAcI4gBAABYQhADAACwhCAGAABgCUEMAADAEoIYAACAJXx9BZAF/bUGWFhSfX0FssfXV2Axy/XrKwhiAAAAM8T3iAEAAOQZghgAAIAlBDEAAABLCGIAAACWEMQAAAAsIYgBAABYQhADAACwhCAGAABgCUEMAADAEoIYAACAJQQxAAAASwhiAAAAlhDEAAAALCGIAQAAWEIQAwAAsIQgBgAAYAlBDAAAwBKCGAAAgCUEMQAAAEsIYgAAAJYQxAAAACwhiAEAAFhCEAMAALCEIAYAAGAJQQwAAMASghgAAIAlBDEAAABLCGIAAACWEMQAAAAsIYgBAABYQhADAACwhCAGAABgCUEMAADAEoIYAACAJQQxAAAASwhiAAAAlhDEAAAALCGIAQAAWEIQAwAAsIQgBgAAYAlBDAAAwBKCGAAAgCUEMQAAAEsIYgAAAJYQxAAAACwhiAEAAFhCEAMAALCEIAYAAGAJQQwAAMASghgAAMAsmpycjJfpEMQAAABmQVj4mi6MhQaxTFMcAAAAchcaxAoKCpwCAACAc4epSQAAgFkQNpA13cAWQQwAAGAWeYFsuhCmOUHMv3OqgzJpDAAAYLEKy1PetmCdt8yIGAAAwCzyQlaYYF1hqp29tOYvAAAACFdYWJgyOwXXPUkjYsED/eveNgAAAIQLZieveLxlb3v8HrEgbwd/AQAAQDg9IuaVTHPUlBGx4KMuXqMAAAAId95558Wz03TFU/D0009Pet+kr8vExETS8vj4uFPGxsbky1/+sjkMAAAAfg899JAUFRU5RYcyXbzRsWBIi4+aBYOYV7xA5gUxL4x5y7reK2HHeQUAAGAhCAtS3qyhDlrBAOYPYsHHeDly5IjKS4ngpIs/TOllL3iFhTBd/Md6x2h6GQAAYCHQwUnzhym97JVgAPOXePAyx8TXw4KYvwRDV7AE9/WWNe8RAAAgn/gzjA5MwUddgiFLL+sQ5q/z6v37JRV/ENN0mPIeve26+IOXf9lb95Z10fzLAAAA+cSfYXRg8h6Dy8GglerRK3pd8x7jQUzzwlOq4g9iYXXBNrx1AACAfKZDlPfoFS0YtHRJFcJCyzPPPKOyUnJwSlfCQlhY8fiXAQAA8pEOTZ4pYSqkZBLCnLa8IKb5Q5S3nGsBAADIV/4s44UmTzBQZVuS2tBBTG/wByhvOWzdv90bHdOCdZp/GQAAIJ95IUqLBymzTT/G7/vy1XkluN1dL5D/H6MbXJJcRxYNAAAAAElFTkSuQmCC;" vertex="1" parent="1">
          <mxGeometry x="-7200" y="-7580" width="4047.96" height="3391" as="geometry" />
        </mxCell>
        <mxCell id="-jE6hyBPfZz7bolu9LrG-1" value="" style="html=1;shadow=0;dashed=0;align=center;verticalAlign=middle;shape=mxgraph.arrows2.arrow;dy=0.79;dx=388.48;notch=0;rotation=-90;fillColor=#FF0000;strokeColor=#b85450;" vertex="1" parent="1">
          <mxGeometry x="-6090" y="-4310" width="1274.48" height="573.31" as="geometry" />
        </mxCell>
        <mxCell id="-jE6hyBPfZz7bolu9LrG-2" value="" style="rounded=0;whiteSpace=wrap;html=1;" vertex="1" parent="1">
          <mxGeometry x="-6170" y="-3320" width="1560" height="600" as="geometry" />
        </mxCell>
        <mxCell id="-jE6hyBPfZz7bolu9LrG-3" value="&lt;h1 style=&quot;font-size: 90px;&quot;&gt;&lt;font style=&quot;font-size: 90px;&quot;&gt;Après avoir rempli correctement tous les champs, cliqué sur &quot;send invitation&quot; pour l&#39;inviter&lt;/font&gt;&lt;/h1&gt;" style="text;html=1;strokeColor=none;fillColor=none;spacing=5;spacingTop=-20;whiteSpace=wrap;overflow=hidden;rounded=0;fontSize=60;align=center;" vertex="1" parent="1">
          <mxGeometry x="-6110" y="-3240" width="1425" height="450" as="geometry" />
        </mxCell>
        <UserObject label="Text" link="data:page/id,FeQkgea6_SIDFXRezrqf" id="-jE6hyBPfZz7bolu9LrG-5">
          <mxCell style="text;html=1;strokeColor=none;fillColor=none;align=center;verticalAlign=middle;whiteSpace=wrap;rounded=0;" vertex="1" parent="1">
            <mxGeometry x="-5840" y="-4830" width="760" height="160" as="geometry" />
          </mxCell>
        </UserObject>
      </root>
    </mxGraphModel>
  </diagram>
  <diagram id="FeQkgea6_SIDFXRezrqf" name="Menu Membres">
    <mxGraphModel grid="1" page="1" gridSize="10" guides="1" tooltips="1" connect="1" arrows="1" fold="1" pageScale="1" pageWidth="827" pageHeight="1169" math="0" shadow="0">
      <root>
        <mxCell id="0" />
        <mxCell id="1" parent="0" />
        <mxCell id="h-oqJyp-Uy1NgRMDYEas-1" value="" style="shape=image;verticalLabelPosition=bottom;labelBackgroundColor=default;verticalAlign=top;aspect=fixed;imageAspect=0;image=data:image/png,iVBORw0KGgoAAAANSUhEUgAABQcAAAN+CAYAAACowL0FAAAAAXNSR0IArs4c6QAAAARnQU1BAACxjwv8YQUAAAAJcEhZcwAADsMAAA7DAcdvqGQAADT4SURBVHhe7d0LlF11fejxX0Kkl2tti5hEMhCwSXgIFK4RCIEA8hRa7b3VokWuIA3Q5W0rgsJCfIAmoreLiFotDw2oJFC9XWpFAiEBggn4SmuKgJpAkomBPED02iuBhOTu18ycmZyZzCCRwO/zWf5Xzn6cvffZZ59hzddz5gzbf//9txSiS+vtLu3mAQAAAAAvDsOGDWtu9dwu/x22ceNG5Q8AAAAAkjnooIPqODhixIhmFgAAAADwUrdp06Y48MADY3gzDQAAAAAkIw4CAAAAQELl94yIgwAAAACQkDgIAAAAAImJgwAAAACQ1KC+rfi+++6L1b8eFiNHjowtmzc3c2sbN22MXf7LLrHp2U0RW5qZhWHDh8e6tWtj0y8746/e/vZmLgAAAADwQiu/rXj//fcfXBy8ac6i+LOjDo2dq/XqAjhs2LDY8PTTccUVH41TT31THHXU5Hjm6TIc9hTCZzdvju/9rDPe8N/GNXMAAAAAgBdaVxwc1MeKX7nrrjFi+PB4ZuOmYjxbjU2bt8SaNWvjzrvujCuumBa33DIntsSweGZTvbwcUUw//dSGeiMAAAAAwA5k2eDi4DNPP1O9C3Bz93g2hg8bHvffvyTWPP54rPv1/40Zn7sq7l5wV+y004hi3We71924cWOzFQAAAADYvhYvXjyosaMpP6U70HGVy8p1nm+Di4MbN1ZBcFMxqvC3ZUts2LAhvn7Lv8Zrhw+Ly3fZJU7atDE+f/VnY+3aNdV96kBYvoOwfRycc96w6gH1HUd+elmzRqs5cd6wI6PtogGXAQAAAJDNxIkTBxw7oh/+8IdxxJFHtQ2E5bxyWbnO82nLliHEwU2bnq3+nODw4SNip51eFgvvXRQL77wj3v1fXx5/ussucUnx7x/99CfxL9/6ZuxUrLN5c1Tj6X7i4CnXbCkOoBy3xrkxOa5aWk8ves/4Zg0AAAAAyKGMlvctWrhVIOwKg+Wy7RE2BxUHn37mmRg+fKdYuWJ5fOG6z8VF7/u7uOXbX48jDj005qxbF/M7O+PeRx6J4448Mvbff59Y/eij8cMffj/+/d8Xx+Zne3+7MQAAAACwtb6BcHuHwdKg4mD5rsFbbvlGzJ7/w3hyzFEx8sCj4qjJR8Rxp5wS3/rP/4yPPfxwXNrZGfu8/e0x5YjD4pvf/D/x058+FD9+4P7qbxUORa+PG583p5nbWPrpOHLAjx8XlvWsM2zYedG1hfbb7fuRZB9RBgAAAOCF0xoIt3cYLA0qDq5fvz5mzfpSPNq5LA7f82Xx6p03xM4jdqr+7uCrJkyIh3bZJca+5S0x8eij4w9+/xWxZs3quOWWb8ajq38ev/rVr5qtDE6vjxtfO60l1N0b50+L+FK5bOlVEeef2SbizYnzJnw1Tms+olxsIqY1K/W/XQAAAADa6X6j1TYGL16DioO/+OWTseE3v44VC2+K8//nn8ZDP7gtdt555+gYMyb+6u1vj/dfdFF85MMfjt8r5pVe97rXx49//B/xyCMPx1MbNlTzBm3Oec2FdWpc28yqTY6rvvSeqP4i4fj3xAfPvTceXFot6LHsZ/HjMiJOaC7OU6+Ne7tW6ne7AAAAALRTv9Fq24PnT+tHiVs/Yry9DCoO/uEf/lHsudeE2GOf18fZf/O+GLX3xNi0eUv8wR/8QUyePDne/OY3x9ixY5u1I3bbbbe46KIPFfPfEsVqg1d+JPjUiFurC2tpXDW5mb+VZfGzHzc3t3Juc/9mXHPKELYLAAAAAC+Mvn9jsO/fINweBv03B//u798XF7zvg/HWv/jL2HXXXeMXv3ii+shw+dHiDRueiieeeCKeeeaZav1nn90UR005No6YPCV+89RT1bxBWfpg3Dv5tTGhvL3s2/HVe6u5jXvjq99uPgtcLTs3/vsp9WS38fvEgXFt90eJu/W73Qnx2skt70Cc8w3vKgQAAADgd66/Lx/ZvoFw3ODiYPnR4N889Zt48IEfx9e//i/Vl4088sgj8Z3vfCfmzbsjvv3tW2POnDnxgx/8IB5//PH4/Vf8fmzcuCk2bHi6+Hdjs5VBOOX9cVWcHxPKj/+e+WAc2OsdfpPjwAfPrD8aPOH8OPDWa6JvGyw2ENdUf49wQvMR4mKUXz7S73bHx3s+eG5ce2qz7jfK9x0CAAAA8GJWRrSBxo7o9a9//VZhsEtXICzXeb4N27hx45YRI0Y0k+39r8uuij/Z/Q9j6bJl0dm5MtY8tipGjx4Zy5eviKeeeip23vn3ivGyOOyww+Itb/mLWLP2iXj17nvHbru+Mr48Z378w0XnNFsCAAAAAF5omzZtiv32229wcfD08y+Lc//iTfF7O7+seifgT3/yYCz92U/i2c3Pxm67jYyXv/zl8f3v3Rs/X90Z++27bxw2aUqx8YNi2E7D47OzvhY3feajzZYAAAAAgBfakOLgV268Mb63/FdRf7vIlhi+007Vx3Bbv42m3OAvf/lk9e9uu70qRhTrrF/7WLx+/Oh433v/vlkLAAAAAHihDSkOAgAAAAAvHV1xcFBfSAIAAAAAvPSIgwAAAACQlDgIAAAAAEmJgwAAAACQlDgIAAAAAEmJgwAAAACQlDgIAAAAAEkN27hx45YRI0Y0kwA7rkv/4drmVm7vm/qXseuuuzZTAAAAMHSbNm2Kvffeu46Dw4d7AyGw4/vQlV+I/f9kYjOV1xknT4zNmzc3UwAAADB05e+Vf/7nf17HwWHDhjWzAXZcH57xxfRx8KH/WBzT339uPPvss80cAAAAGLotW7bEvvvuW8fBcgJgR3fZVdeLg00cLH52N3MAAABg6Mo3Cx5yyCF1HPTxNODF4PJP3yAONnHwmWeeaeYAAADA0JV/ZrA7DpZ/gBBgR/exz35ZHGzi4IYNG5o5AAAAMHTlFxR3x8H270DpjFlTz4hrftZMttrnvLjxC++Isc3kVhZNj6Mvub1Y7cb4wjv6rNUsO/mKe+LSI5t5L3bNY2r1O3t82+V8dj33J8cV91wa1WY7Z8XUM66J8nLo2deimH70JXH7tq6HdprtRbtrZIfU5pxUes7BPe9aMbjnovU5i0G+Vpr1trpd7Kdz0az4yoq949J3DLTT5+C3vbb63P/5OM7pn7uxfRx86Pq46sbvVjdHnnR5vOOYV1e3n1wwLb40d1V1e7/ienvj/tXN316zv9Z9/a50xcHf/OY3zZw+Wl6rPfaJk8/7cHHut+9rbdH0o+OS2/u+RgrNtVBqvdY7Z02NM5r/yDzn6wwAAIDnZOedd67iYPU1xeXfHNx67BmnX7cgFiwoxhUnV3c6+Ypm+rrTY8+292lGtXax3XL0s6xcutWyF+toHlH3+SnGBya3WW97jMkf2A772zOmvGFC8YgeiRWd9bzO79zZHRseWdFZr9e5olgjYsIbpgx8PbQbxf26R7vlO9zoOie3x92LWuYvuruYU5+DQT8XresV9y21PQ9t1ivX7L2fRfGVS66J21dsh/PY7LHaZ7vl2xrb4TgHY/39P4onm9u/WFeHwZeiduenGuWyYkw478bq/JfjipO3xO3XXB6zmtfz9hrd+i5rZpd+dud3orOZv2pFa8Lscx/DMAzDMAzDMAxju44uVRws/+bgwKO+w5Y+81fOmh5TjzkmjqnG1Jg+a2Wv9WP5l7uXT+2zrHtbK2fF9KnNNqZOj1krm/nF6Hf7C6f32ubC6eXy6bGw2V51n+kLW5ZN7bXd53+0Pz/laP8YVsas8jFPnRUrq/UWxvSWY+7/nDTrTZ3abLN4zN+oz8X0hf3sr5k/1NEx9jXFI1oay6t9r4x77lxaTE+ICROKuXfeUx/3yuXFGhGvGdtR328ox726uUa21Ov0fZ76fRxdz/30nuU919ZA12QxWo9voGV9rsOu0XHkG4ozEHH7Xc3zVIyVy6s8Gm84sjgHzbFt87notd4Ar5U261XXWDO/vo4uqeJk3H5JcdzN9TSIxzK40bLPYpvl8ZXnvd521/kb4FruPv7n7zi3ZeTue0Y89lj8oppaEkt/1Mxrtf62uO0fz4urLi3GP14fP1jfzC/fDVjMm/W167uXz/rabfHwgutjVrnupdPitgVrmpUb6+Y0y4p1W5f1t4/imG6r5k1r7nd9PFwse7J7H+Uo9vNQs/oA2p2fevR+bZVj0tGtr+diDHDu+38NtXkdF/dbOWtq93buqna9pXtbPaM+pgnVD5Dl3dfKXcVFUc0rbPO/Cf1eg8Wy5lpr+98EwzAMwzAMwzAMo+3oMrg42NTELS2/bG5eOTs+du3yOPaG+TF//vyYduLSmHvtV2JRy/pLl+8VlxbLbjhnQiy99p3x8UV9tlVs49x3XhvLj72h2MYNMW3vuXHtOz9eb2MQ2+/65bee3FL/ctnxtjjzxGJy7g0xe/bH49K5xe0Tz4y3ddTrbpfR7vyUo9/H0BFj9y7uUPyS3FmttyKWl4d59KTifovi48U5mbv3tLihPHfHLi/Oybkxu/oFuXiM5Y6W7h1nFsvmz784Ju3W+3x+7NriAZ84rWd/lzbnc6ijY68qhC1fUfyyvfI7cVdZAYvzeGbLcS+6uzy5E2Kv6twO8bhH18ddPocrZ59bPU8nTru6fp4GehwDXVsDXTN9j2/a3sWynvv1ex22jo7JcWx5Uube3SxbGd8pT8yEY2Nyedx9ru1tPYZqvYEeT5v1Wm9/fFFHvO3qaVFe7tV+rn5bdAz2sQxmtO6ziTvlcZ5+9Q1xzoRBXMvd93/+jnObRnfEyPhuLC3j2kP/Fj+JPWOfgzrqZaX1t8Wsq74eTxx0eZw//fJ40+jvxqKrro+Hm8Wl9Wt3j8P/9po486Q9Y/2Pvh7fWve6OHX6NfGmQ1bFT+bO2Wrdclm17tyP1FFvEPuIxzpiUnG/86e/K8bFbXHr3O9GHPLuYrrZz4191m+j3fmpR33eW+Ng/Vo9MY6eVE4P8Fod8DXU5nW8uVx/aUw4p3gerz46tpS76fpZ3DqaayH23rv4iTE37i6v70V3F7cmxLHHlhdQc50NeF30dw22bL95zPVkm+MwDMMwDMMwDMMwukeXAT5W3DqqdcsVe+bt8bb4p3kfiLELb4pPnHdefPCOcoXlzcdQq7Vj/DGTY49iYo/Jx8T4cmn1cdR6WXmjc+FdsbRYcszkPYrJPWLS0WU+uCMW3Du47XcfSz3ZPT3p4o8VvwYvjeuuK+90Ynzs4kk9626XUe//jg8eH8cfX4zzbqo/NjfAY2h9rPV5KH9xL27fdEMxd3xMPX1Sy7lbGnctrD/KWznx6JhU7bdn3+WNarq4ufSOG+K8T9wbHafPi3nzil/gu9cdwthjbFTN566F0blqRXEEdfCpj7t8DJ2xoqxA44+JyXs8l+MuRjFr6XVnxVnXFVfBiR+Li4vH32tZ28dRban9tTXQNXPvguL46sdQ3W/SxcU251X7HPA6rPbZNfaIyceUe2uWdS6somnXsRT/q3WtX9wc6DHU69U3t/Va6f9290R1e/CPZTCj3nJ5o5oubtbHuUcdBKtF/V/Lfe/fTFS3n+txbtOo18U+u0f85MdL4sl1q4sZHfHKUfWi0pMP/jDWl8HwteXfCXx1jDtwUvFvExMbIw86JHYt/t11VB0V9zvw4Gr6laPKdyCujl90vwuwZd3Xvj5GFv8+sW7NoPYRh7wuxjU3u6z/0bdi1teWxCuP7YqGA2t3frpHsbx8bVU/j4pRvhbGF6+/jmLZgK/VAX/uNue/5XXc+3mcFNXTWOh1LNVo5u91dJQvoTsW3Bud1Q+QvWNs159BLFba5nVRTLW7Bru3X92u1+s1bRiGYRiGYRiGYWw1ujz3dw523hR/c8K74kN3r4ix7/xAfPSEapV6nWb9vbs+btpRh6ZlK1b12lZ9c1l84V0nxAknFOND1W+iVRgZzPbLDZTbryeLB9Z1bJsPjynN+uNPmBKHd8/fTqM5nhM+Ojfmzi3G50+LjnL+QI/h8ClRTpa/JK9asay4c32cPQ+t2Xbruet6507zuFv3Xa3fcVq886/LtLQslt3xoXhXcV7/5hM31e/oGvJozuGyFTFrQfm8jI+x5bvjiuMZX2z/7lmz4u7isIsnuXqsz/W4uyy7Y0Hc27VsoMfR3K/ttTXA+a5DRMvxtYx6k/1ch33W7WiJd50L7y7uVYaM5liaY9vmc9G63kCPp816W93uc27rRYN7LNscbfbZez/Na66fa3l7HOe2jY5Xji7+Wftv8b37V7WNcBGrYtFVzUd4my8xKaPec7HbqObLSEbuHrsV/6xft7aeHso+Rr4xJp1UhsdVsf5Hn48vFfcrP87c9XcT+9Pu/FSjOe/j/3pm/fOoGDOLF0N5HU6/qSc6189LMQb5Gmr3Ou67rY6x5TXfXBeto3vF5p2myxfErPIHSHmtNMvKbdQ3+7kuenbWsu9mXwMtMwzDMAzDMAzDMNqOLs/5nYOrFi6owsjZl7w/Tju8o/6lsfgVc2xHz/oril82q/VXrYgVxfT4scV6vbZV3ii28cXb4/bbe8bnTusY1PbrbRSje7KZXnVzfHlePW/ZvC/Hzaua+dtt1Psqb7TOH/gxNPGtOL4vFyfnhCmHN/erVureRu9z172jnuV99n34aZ8rzuEX44uXnx0nFL+nL5v3xZh9X+v6gx/1L/rlO96Kf8YfHZPL4+6YHEdX251XPLbf5ribeePPLo61OhHx5Zub66UY/T+O+m7trq2BzndHz9uMuvfRM8oF7a/DrdbtevwLZsfsBcUZ6Dov1fJqD4N4LlrXq28O7rXS7nb3RHW7nhzkY9nmqDbcez9dy+qp+vY2ruXyRvf9f8vjHIzqnXqPfTd+8ljEyFFlKexrzzjy/PLdeT3juX7jcHfwW/9YPFH807O/oe1j3DEfLNa5PM4843/EfruX7yL8enxvG393sN356RrNCt3THU3AXbayvM66FjfLB/ka6t5u93NYjmZOM71qZflTod2xVbOrYzq8vFiWFT9XypdP2+u8/+uiUq1XjHqqvt1rG32XGYZhGIZhGIZhGO1Gl+f+zsFq3rJYuaq43Xlf3FPFuPLjZz3rL1uwsHqnVGf1C+e4mHLEmF7bGnPElGLusliwsH63UOfN746TT3533Ny9jX62P2bP6t1A9fF0LSseWHVsnXHzx2cW9zw+LrvuXdX2Z3785uf47rlBjnbnp3t+P4+hWH7YUcdXy5ctOz6OOqye13VOZs6+b+tzN8A78Kp93/e/i/N3crz75mI7h/1lvG1Kuf02xzXIMWbsXtX9S+OmHBFjqvljomf2uNhzTLPuUI+7mVdt97AL47LiUJfNnB33lcsGehzN4+3/2urnfB92VHFFRMy7pz6+zZ03x7urfXQOfB1Wx9o6xsQRU4qrr4kbPeelGIN9LlrX2+bj6f8+1e0+53Zoj2Ubo81+6ttbvzOr3bW8PY5zUF61e/UR3zLQ1R/t7VF//HdV/OzBOuo9uWBa9QUgPV8YMjRd34zc+lHiIe+j64tQFhTHt/8b4/CDyo8hb1u781OP3s9VOTrvuyfKl8O4PccM/FqtnrP+fmb1fg7L0ft57PuzuGW0XgvNz+/y50ff63zg66L346rv1uxrwP8mGIZhGIZhGIZhGO1Gl8HFweKXslLrL1pj3npRnFX8Njb/slPilHO+EluOK381e7j+pbJZf9xeK+MTp5wS51z/cIw766J4axWSWrY15q3xmQ8fF3H9OXFKtV7EcR/+TLXegNsv7veOYvrh8n5/e0+xrNpidVyd//yJKHZXbOeCOLRY76JyIw9fH5/45/qXze0ztj4/5Rj4HBXj0COjOvTjjoxDu+5XnpNrzorjVlwW55Tn5J694qxr6nNSLq9/H27WrUbLvg+9IK7pdT5XxHFnXRMXHNq6/hBG1/GVv8RPKiNfPf/QI+u5MW5KTGqO67ked9e8Q087q9jL/PhK+TwN+Djq+5XX1k1/21wzzbU18Pk+NC5oOb5T6ostPvPW4nENcB32HG/PGDOpDBjVUfQ6L4N/LlrWa3k8A75W+r19aJxWP+hiP/8Q9w3xsQw8tt5nMVEvqyZbYm+7a3k7HOegjDyk+ruD1d8brCthj5FvjHecMSli7keqIPeluRH7nfHBOLTveoM0cvRjcWu1nVUx8qSp9XaGuo/93xVn9lp/dex30uXxxv2b5f1od37qUZ/36udjcW6r83vZ/BhXXO8XdV3v/bxWt/Uzq37aW/ZVbKv8GdvuZ3Hv0XL9jJkUZV+P2Kv5PxdarpMBr4uWbZTr1gdT3y7u199/EwzDMAzDMAzDMIz2o8uwjRs3bnn88cebSdjBfX9G/NlH74xxZ10dn37rHs1MsvjsV/419v+Tic1UTg/9x+KY/v5zY82a5/Z3EgEAAKD0qle9Kg455JA6Dq5bt66ZDTu4738q3jztrvjjM/8prnpL/W2y5PG5WbeIg00cfPTRR5s5AAAAMHSjRo3qiYNr13Z9wybAjuvzs78tDjZxcPXq1c0cAAAAGLrRo0f3xMHHHnusmQ2w47r65jniYBMHV61a1cwBAACAodt999174qB3oAAvBtd+9XZxsImDK1eubOYAAADA0HV0dPTEwZ///OfNbIAd13VfmysONnFwxYoVzRwAAAAYuj322KMnDv76179uZgMAAAAAL3WveMUreuLgkiVLmtkAAAAAwEvdwQcf3BMHP/Kpmc1sAAAAAOCl7vL3nt07Dp502L7NIgAAAADgpWru93/aHQeHN/MAAAAAgGTEQQAAAABIShwEAAAAgKTEQQAAAABIShwEAAAAgKTEQQAAAABIShwEAAAAgKTEQQAAAABIShwEAAAAgKTEQQAAAABIShwEAAAAgKTEQQAAAABIShwEAAAAgKTEQQAAAABIShwEAAAAgKTEQQAAAABIShwEAAAAgKTEQQAAAABIShwEAAAAgKTEQQAAAABIShwEAAAAgKTEQQAAAABIShwEAAAAgKTEQQAAAABIShwEAAAAgKTEQQAAAABIShwEAAAAgIR2GjFcHAQAAACAjJ5c8//EQQAAAADIaMTOO4mDAAAAAJCVOAgAAAAASYmDAAAAAJCUOAgAAAAASYmDAAAAAJCUOAgAAAAASYmDAAAAAJCUOAgAAAAASYmDAAAAAJCUOAgAAAAASYmDAAAAAJCUOAgAAAAASYmDAAAAAJCUOAgAAAAASYmDAAAAAJCUOAgAAAAASYmDAAAAAJCUOAgAAAAASYmDAAAAAJCUOAgAAAAASYmDAAAAAJCUOAgAAAAASYmDAAAAAJCUOAgAAAAASYmDAAAAAJCUOAgAAAAASYmDAAAAAJCUOAgAAAAASYmDAAAAAJDQ8lVLxUEAAAAAyOg1e04QBwEAAAAgK3EQAAAAAJISBwEAAAAgKXEQAAAAAJISBwEAAAAgKXEQAAAAAJISBwEAAAAgKXEQAAAAAJISBwEAAAAgKXEQAAAAAJISBwEAAAAgKXEQAAAAAJISBwEAAAAgKXEQAAAAAJISBwEAAAAgKXEQAAAAAJISBwEAAAAgKXEQAAAAAJISBwEAAAAgKXEQAAAAAJISBwEAAAAgKXEQAAAAAJISBwEAAAAgKXEQAAAAAJISBwEAAAAgKXEQAAAAAJISBwEAAAAgKXEQAAAAAJISBwEAAAAgKXEQAAAAAJISBwEAAAAgKXEQAAAAAJISBwEAAAAgKXEQAAAAAJISBwEAAAAgKXEQAAAAABIaPmy4OAgAAAAAGT362GPiIAAAAABkNGb33cVBAAAAAMho85bN4iAAAAAAZCUOAgAAAEBS4iAAAAAAJCUOAgAAAEBS4iAAAAAAJCUOAgAAAEBS4iAAAAAAJCUOAgAAAEBS4iAAAAAAJCUOAgAAAEBS4iAAAAAAJCUOAgAAAEBS4iAAAAAAJCUOAgAAAEBS4iAAAAAAJCUOAgAAAEBS4iAAAAAAJCUOAgAAAEBS4iAAAAAAJCUOAgAAAEBS4iAAAAAAJCUOAgAAAEBS4iAAAAAAJCUOAgAAAEBS4iAAAAAAJCUOAgAAAEBS4iAAAAAAJCUOAgAAAEBS4iAAAAAAJCUOAgAAAEBS4iAAAAAAJCUOAgAAAEBS4iAAAAAAJCUOAgAAAEBS4iAAAAAAJCUOAgAAAEBS4iAAAAAAJCUOAgAAAEBS4iAAAAAAJCUOAgAAAEBS4iAAAAAAJCUOAgAAAEBS4iAAAAAAJCUOAgAAAEBS4iAAAAAAJCUOAgAAAEBS4iAAAAAAJCUOAgAAAEBS4iAAAAAAJCUOAgAAAEBS4iAAAAAAJCUOAgAAAEBS4iAAAAAAJCUOAgAAAEBS4iAAAAAAJCUOAgAAAEBS4iAAAAAAJCUOAgAAAEBS4iAAAAAAJCUOAgAAAEBS4iAAAAAAJCUOAgAAAEBS4iAAAAAAJCUOAgAAAEBS4iAAAAAAJCUOAgAAAEBS4iAAAAAAJCUOAgAAAEBS4iAAAAAAJCUOAgAAAEBS4iAAAAAAJCUOAgAAAEBS4iAAAAAAJCUOAgAAAEBS4iAAAAAAJCUOAgAAAEBS4iAAAAAAJCUOAgAAAEBS4iAAAAAAJCUOAgAAAEBS4iAAAAAAJCUOAgAAAEBS4iAAAAAAJCUOAgAAAEBS4iAAAAAAJCUOAgAAAEBS4iAAAAAAJCUOAgAAAEBS4iAAAAAAJCUOAgAAAEBS4iAAAAAAJCUOAgAAAEBS4iAAAAAAJCUOAgAAAEBS4iAAAAAAJCUOAgAAAEBS4iAAAAAAJCUOAgAAAEBS4iAAAAAAJCUOAgAAAEBS4iAAAAAAJCUOAgAAAEBS4iAAAAAAJCUOAgAAAEBS4iAAAAAAJCUOAgAAAEBS4iAAAAAAJCUOAgAAAEBS4iAAAAAAJCUOAgAAAEBS4iAAAAAAJCUOAgAAAEBS4iAAAAAAJCUOAgAAAEBS4iAAAAAAJCUOAgAAAEBS4iAAAAAAJCUOAgAAAEBS4iAAAAAAJCUOAgAAAEBS4iAAAAAAJCUOAgAAAEBS4iAAAAAAJCUOAgAAAEBS4iAAAAAAJCUOAgAAAEBS4iAAAAAAJCUOAgAAAEBS4iAAAAAAJCUOAgAAAEBS4iAAAAAAJCUOAgAAAEBS4iAAAAAAJCUOAgAAAEBS4iAAAAAAJCUOAgAAAEBS4iAAAAAAJCUOAgAAAEBS4iAAAAAAJCUOAgAAAEBS4iAAAAAAJCUOAgAAAEBS4iAAAAAAJCUOAgAAAEBS4iAAAAAAJCUOAgAAAEBS4iAAAAAAJCUOAgAAAEBS4iAAAAAAJCUOAgAAAEBS4iAAAAAAJCUOAgAAAEBS4iAAAAAAJCUOAgAAAEBS4iAAAAAAJCUOAgAAAEBS4iAAAAAAJCUOAgAAAEBS4iAAAAAAJCUOAgAAAEBS4iAAAAAAJCUOAgAAAEBS4iAAAAAAJCUOAgAAAEBS4iAAAAAAJCUOAgAAAEBS4iAAAAAAJCUOAgAAAEBS4iAAAAAAJCUOAgAAAEBS4iAAAAAAJCUOAgAAAEBS4iAAAAAAJCUOAgAAAEBS4iAAAAAAJCUOAgAAAEBS4iAAAAAAJCUOAgAAAEBS4iAAAAAAJCUOAgAAAEBS4iAAAAAAJCUOAgAAAEBS4iAAAAAAJCUOAgAAAEBS4iAAAAAAJCUOAgAAAEBS4iAAAAAAJCUOAgAAAEBS4iAAAAAAJCUOAgAAAEBS4iAAAAAAJCUOAgAAAEBS4iAAAAAAJCUOAgAAAEBS4iAAAAAAJCUOAgAAAEBS4iAAAAAAJCUOAgAAAEBS4iAAAAAAJCUOAgAAAEBS4iAAAAAAJCUOAgAAAEBS4iAAAAAAJCUOAgAAAEBS4iAAAAAAJCUOAgAAAEBS4iAAAAAAJCUOAgAAAEBS4iAAAAAAJCUOAgAAAEBS4iAAAAAAJCUOAgAAAEBS4iAAAAAAJCUOAgAAAEBS4iAAAAAAJCUOAgAAAEBS4iAAAAAAJCUOAgAAAEBS4iAAAAAAJCUOAgAAAEBS4iAAAAAAJCUOAgAAAEBS4iAAAAAAJCUOAgAAAEBS4iAAAAAAJCUOAgAAAEBS4iAAAAAAJCUOAgAAAEBS4iAAAAAAJCUOAgAAAEBS4iAAAAAAJCUOAgAAAEBS4iAAAAAAJCUOAgAAAEBS4iAAAAAAJCUOAgAAAEBS4iAAAAAAJCUOAgAAAEBS4iAAAAAAJCUOAgAAAEBS4iAAAAAAJCUOAgAAAEBS4iAAAAAAJCUOAgAAAEBS4iAAAAAAJCUOAgAAAEBS4iAAAAAAJCUOAgAAAEBS4iAAAAAAJCUOAgAAAEBS4iAAAAAAJCUOAgAAAEBS4iAAAAAAJCUOAgAAAEBS4iAAAAAAJCUOAgAAAEBS4iAAAAAAJCUOAgAAAEBS4iAAAAAAJCUOAgAAAEBS4iAAAAAAJCUOAgAAAEBS4iAAAAAAJCUOAgAAAEBS4iAAAAAAJCUOAgAAAEBS4iAAAAAAJCUOAgAAAEBS4iAAAAAAJCUOAgAAAEBS4iAAAAAAJCUOAgAAAEBS4iAAAAAAJCUOAgAAAEBS4iAAAAAAJCUOAgAAAEBS4iAAAAAAJCUOAgAAAEBS4iAAAAAAJCUOAgAAAEBS4iAAAAAAJCUOAgAAAEBS4iAAAAAAJCUOAgAAAEBS4iAAAAAAJCUOAgAAAEBS4iAAAAAAJCUOAgAAAEBS4iAAAAAAJCUOAgAAAEBS4iAAAAAAJCUOAgAAAEBS4iAAAAAAJCUOAgAAAEBS4iAAAAAAJCUOAgAAAEBS4iAAAAAAJCUOAgAAAEBS4iAAAAAAJCUOAgAAAEBS4iAAAAAAJCUOAgAAAEBS4iAAAAAAJCUOAgAAAEBS4iAAAAAAJCUOAgAAAEBS4iAAAAAAJCUOAgAAAEBS4iAAAAAAJCUOAgAAAEBS4iAAAAAAJCUOAgAAAEBS4iAAAAAAJCUOAgAAAEBS4iAAAAAAJCUOAgDsyNbNjxkXXhgXzpgf65pZ7Twwu1jnwtnxQDPdaqBlg/LA7OL+F8bscgOtt7dh3QPzY/b857xXAAB+B8RBAIAd2Lr7l8Tq8sbqJXH/QHXwd+WA0+PKK6+M0w9opvv1QMybeWssXttMAgCwQxIHAQB2WOvi/iWrIyZOjImxOm6d1/tdeOvmz6jexXfhjNmxpJnXZaBlrdbNn12/M7EaM2L2/G0UyD7vHNzq/tX8dTF/xsxYXN5cPHOb73oEAOCFIw4CAOyo1t0fZRvsGH1CHDyxmF68pOejwevmx423ro6OUy+OKy84uFjWzC8NtKxVtd6aOPjiK6t3A549cXUsvnXe4D9+XN2/2PjEs3vuP7P8+PKoOP6Cs6M85GrZBccXcwAA2BGJgwAAO6j6I8UdcfBBo+KAug7Gkq537LUsizigjoeNgZb1Mur4uODKM+LV98+P2TNmxMwqIq6JNUN8m9/qxbfHjNkPxMgTysh4erFHAABeLMRBAIAdUvOR4o6Do258B1fvxFvcVQf7GDm6o7m1tX6XVV928smYuWRtjD75jDi7v4jYn1HHx8mnltteHasXz4xPfvLCmDHbR4gBAF5MxEEAgB1R85HiWH1rfLL6e35df8Ov5aPFLdavrb62pK3+lnW9w/DUM06P4w/o+uDvq+PVQ/gM8AHHXxBXXnlxXHz2qTGxo3wX4a3R508jAgCwAxMHAQB2QF3fUjzx7PrvAZbj4updevVHi0cddHB0FGssqb7C+IFY0vJ3BQdatrXVsXZ98c+6rvWG8LHi5stJZswv9nnA8XFCv59fBgBgRyUOAgDscJqPFMfEOLjlD/jV0a/5aPGo4+OMUzti9a2fjAtnLClX7THQshajjj8jyt64eOaFceEnby/Wqz8iXMXCwTjg9Li4/CxyuZ8LL4xP3romJp56cZxeHfMBcUK98WJZ+SUlAADsiIZt3Lhxy0c+NTNOOmzfZhYAAAAA8FI19/s/jcvfe3bs88ev9c5BAAAAAMhKHAQAAACApMRBAAAAAEhKHAQAAACApMRBAAAAAEhKHAQAAACApMRBAAAAAEhKHAQAAACApMRBAAAAAEhKHAQAAACApMRBAAAAAEhKHAQAAACApMRBAAAAAEhKHAQAAACApMRBAAAAAEhKHAQAAACApMRBAAAAAEhKHAQAAACApMRBAAAAAEhKHAQAAACApMRBAAAAAEhKHAQAAACApMRBAAAAAEhKHAQAAACApMRBAAAAAEhKHAQAAACApMRBAAAAAEhKHAQAAACApMRBAAAAAEhKHAQAAACApMRBAAAAAEhKHAQAAACApMRBAAAAAEhKHAQAAACApMRBAAAAAEhKHAQAAACApMRBAAAAAEhKHAQAAACApMRBAAAAAEhKHAQAAACApMRBAAAAAEhKHAQAAACApMRBAAAAAEhKHAQAAACApMRBAAAAAEhKHAQAAACApMRBAAAAAEhKHAQAAACApMRBAAAAAEhKHAQAAACApMRBAAAAAEhKHAQAAACApMRBAAAAAEhKHAQAAACApMRBAAAAAEhKHAQAAACApMRBAAAAAEhKHAQAAACApMRBAAAAAEhKHAQAAACApMRBAAAAAEhKHAQAAACApMRBAAAAAEhKHAQAAACApMRBAAAAAEhKHAQAAACApMRBAAAAAEhKHAQAAACApMRBAAAAAEhKHAQAAACApMRBAAAAAEhKHAQAAACApMRBAAAAAEhKHAQAAACApMRBAAAAAEhKHAQAAACApMRBAAAAAEhKHAQAAACApMRBAAAAAEhKHAQAAACApMRBAAAAAEhKHAQAAACApMRBAAAAAEhKHAQAAACApMRBAAAAAEhKHAQAAACApMRBAAAAAEhKHAQAAACApMRBAAAAAEhKHAQAAACApMRBAAAAAEhKHAQAAACApMRBAAAAAEhKHAQAAACApMRBAAAAAEhKHAQAAACApMRBAAAAAEhKHAQAAACApMRBAAAAAEhKHAQAAACApMRBAAAAAEhKHAQAAACApMRBAAAAAEhKHAQAAACApMRBAAAAAEhKHAQAAACApMRBAAAAAEhKHAQAAACApMRBAAAAAEhKHAQAAACApMRBAAAAAEhKHAQAAACApMRBAAAAAEhKHAQAAACApMRBAAAAAEhKHAQAAACApMRBAAAAAEhKHAQAAACApMRBAAAAAEhKHAQAAACApMRBAAAAAEhKHAQAAACApMRBAAAAAEhKHAQAAACApMRBAAAAAEhKHAQAAACApMRBAAAAAEhKHAQAAACApMRBAAAAAEhKHAQAAACApMRBAAAAAEhKHAQAAACApMRBAAAAAEhKHAQAAACApMRBAAAAAEhKHAQAAACApMRBAAAAAEhKHAQAAACApMRBAAAAAEhKHAQAAACApMRBAAAAAEhKHAQAAACApMRBAAAAAEhKHAQAAACApMRBAAAAAEhKHAQAAACApMRBAAAAAEhKHAQAAACApMRBAAAAAEhKHAQAAACApMRBAAAAAEhKHAQAAACApMRBAAAAAEhKHAQAAACApMRBAAAAAEhKHAQAAACApMRBAAAAAEhKHAQAAACApMRBAAAAAEhKHAQAAACApMRBAAAAAEhKHAQAAACApMRBAAAAAEhKHAQAAACApMRBAAAAAEhKHAQAAACApMRBAAAAAEhKHAQAAACApMRBAAAAAEhKHAQAAACApMRBAAAAAEhKHAQAAACApMRBAAAAAEhKHAQAAACApMRBAAAAAEhKHAQAAACApMRBAAAAAEhKHAQAAACApMRBAAAAAEhKHAQAAACApMRBAAAAAEhKHAQAAACApMRBAAAAAEhKHAQAAACApMRBAAAAAEhKHAQAAACApMRBAAAAAEhKHAQAAACApMRBAAAAAEhKHAQAAACApMRBAAAAAEhKHAQAAACApMRBAAAAAEhKHAQAAACApMRBAAAAAEhKHAQAAACApMRBAAAAAEhKHAQAAACApMRBAAAAAEhKHAQAAACApMRBAAAAAEhKHAQAAACApMRBAAAAAEhKHAQAAACApMRBAAAAAEhKHAQAAACApMRBAAAAAEhKHAQAAACApMRBAAAAAEhKHAQAAACApMRBAAAAAEhKHAQAAACApMRBAAAAAEhKHAQAAACApMRBAAAAAEhKHAQAAACApMRBAAAAAEhKHAQAAACApMRBAAAAAEhKHAQAAACApMRBAAAAAEhKHAQAAACApMRBAAAAAEhKHAQAAACApMRBAAAAAEhKHAQAAACApMRBAAAAAEhKHAQAAACApMRBAAAAAEhKHAQAAACApMRBAAAAAEhKHAQAAACApMRBAAAAAEhKHAQAAACApMRBAAAAAEhKHAQAAACApMRBAAAAAEhKHAQAAACApMRBAAAAAEhKHAQAAACApMRBAAAAAEhKHAQAAACApMRBAAAAAEhKHAQAAACApMRBAAAAAEhKHAQAAACApMRBAAAAAEhKHAQAAACApMRBAAAAAEhKHAQAAACApMRBAAAAAEhKHAQAAACApMRBAAAAAEhKHAQAAACApMRBAAAAAEhKHAQAAACApMRBAAAAAEhKHAQAAACApMRBAAAAAEhKHAQAAACApMRBAAAAAEhKHAQAAACApMRBAAAAAEhKHAQAAACApMRBAAAAAEhKHAQAAACApMRBAAAAAEhKHAQAAACApMRBAAAAAEhKHAQAAACApMRBAAAAAEhKHAQAAACApMRBAAAAAEhKHAQAAACApMRBAAAAAEhKHAQAAACApMRBAAAAAEhKHAQAAACApMRBAAAAAEhKHAQAAACApMRBAAAAAEhKHAQAAACApMRBAAAAAEhKHAQAAACApMRBAAAAAEhKHAQAAACApMRBAAAAAEhKHAQAAACApMRBAAAAAEhKHAQAAACApMRBAAAAAEhKHAQAAACApMRBAAAAAEhKHAQAAACApMRBAAAAAEhKHAQAAACApMRBAAAAAEhKHAQAAACApMRBAAAAAEhKHAQAAACApMRBAAAAAEhKHAQAAACApMRBAAAAAEhKHAQAAACApMRBAAAAAEhKHAQAAACApMRBAAAAAEhKHAQAAACApMRBAAAAAEhKHAQAAACApMRBAAAAAEhKHAQAAACApMRBAAAAAEhKHAQAAACApMRBAAAAAEhKHAQAAACApMRBAAAAAEhKHAQAAACApMRBAAAAAEhKHAQAAACApMRBAAAAAEhKHAQAAACApMRBAAAAAEhKHAQAAACApMRBAAAAAEhKHAQAAACApMRBAAAAAEhKHAQAAACApMRBAAAAAEhKHAQAAACApMRBAAAAAEhKHAQAAACApMRBAAAAAEhKHAQAAACApMRBAAAAAEhKHAQAAACApMRBAAAAAEhKHAQAAACApMRBAAAAAEhKHAQAAACApMRBAAAAAEhKHAQAAACApMRBAAAAAEhKHAQAAACApMRBAAAAAEhKHAQAAACApMRBAAAAAEhKHAQAAACApMRBAAAAAEhKHAQAAACApMRBAAAAAEhKHAQAAACApMRBAAAAAEhKHAQAAACApMRBAAAAAEhKHAQAAACApMRBAAAAAEhKHAQAAACApMRBAAAAAEhKHAQAAACApMRBAAAAAEhKHAQAAACApMRBAAAAAEhKHAQAAACApMRBAAAAAEhKHAQAAACApMRBAAAAAEhKHAQAAACApMRBAAAAAEhKHAQAAACApMRBAAAAAEhKHAQAAACApMRBAAAAAEhKHAQAAACApMRBAAAAAEhKHAQAAACApMRBAAAAAEhKHAQAAACApMRBAAAAAEhKHAQAAACApMRBAAAAAEhKHAQAAACApMRBAAAAAEhKHAQAAACApMRBAAAAAEhKHAQAAACApMRBAAAAAEhKHAQAAACApMRBAAAAAEhKHAQAAACAhJavWioOAgAAAEBGr9lzgjgIAAAAAFmJgwAAAACQlDgIAAAAAEmJgwAAAACQlDgIAAAAAEmJgwAAAACQlDgIAAAAAEmJgwAAAACQlDgIAAAAAEmJgwAAAACQlDgIAAAAAEmJgwAAAACQlDgIAAAAAEmJgwAAAACQlDgIAAAAAEmJgwAAAACQlDgIAAAAAEmJgwAAAACQlDgIAAAAAEmJgwAAAACQ0LBhw8RBAAAAAMhq2MaNG7d85FMzm0kAAAAA4KXu8veeHfuOO7COg808AAAAACCJ/cYfGP8feAF+AIHqHRYAAAAASUVORK5CYII=;" vertex="1" parent="1">
          <mxGeometry x="-910" y="-586.85" width="2889.06" height="2006.85" as="geometry" />
        </mxCell>
        <mxCell id="h-oqJyp-Uy1NgRMDYEas-2" value="&lt;font style=&quot;font-size: 24px;&quot; color=&quot;#000000&quot;&gt;d&lt;br&gt;nul&lt;br&gt;&lt;/font&gt;" style="rounded=0;whiteSpace=wrap;html=1;fillColor=#ffffff;" vertex="1" parent="1">
          <mxGeometry x="-240" y="-470" width="150" height="70" as="geometry" />
        </mxCell>
        <mxCell id="07sJuvlPh3fSTWjAHH_Z-4" value="" style="html=1;shadow=0;dashed=0;align=center;verticalAlign=middle;shape=mxgraph.arrows2.arrow;dy=0.79;dx=388.48;notch=0;rotation=-90;fillColor=#FF0000;strokeColor=#b85450;" vertex="1" parent="1">
          <mxGeometry x="-1090" y="260" width="1834.48" height="573.31" as="geometry" />
        </mxCell>
        <mxCell id="07sJuvlPh3fSTWjAHH_Z-5" value="" style="rounded=0;whiteSpace=wrap;html=1;" vertex="1" parent="1">
          <mxGeometry x="-810" y="1490" width="1560" height="600" as="geometry" />
        </mxCell>
        <mxCell id="07sJuvlPh3fSTWjAHH_Z-6" value="&lt;h1 style=&quot;font-size: 90px;&quot;&gt;le créateur de la table et la personne invité serra afiché dans le menu &quot;Membres&quot;&lt;/h1&gt;" style="text;html=1;strokeColor=none;fillColor=none;spacing=5;spacingTop=-20;whiteSpace=wrap;overflow=hidden;rounded=0;fontSize=60;align=center;" vertex="1" parent="1">
          <mxGeometry x="-750" y="1570" width="1425" height="450" as="geometry" />
        </mxCell>
      </root>
    </mxGraphModel>
  </diagram>
</mxfile>
